<svg width="68" height="34" viewBox="0 0 68 34" fill="none" xmlns="http://www.w3.org/2000/svg">
<path d="M6.78906 11.5262C8.73936 11.5263 10.3201 13.1072 10.3203 15.0575C10.3203 15.2167 10.3085 15.3736 10.2881 15.5272C11.8265 15.9087 12.9668 17.2986 12.9668 18.9549C12.9667 20.9052 11.3858 22.486 9.43555 22.4862H9.08887C8.05705 22.4862 7.1291 22.0433 6.4834 21.3377C5.8377 22.0433 4.90973 22.4862 3.87793 22.4862H3.53125C1.58102 22.486 9.90767e-05 20.9052 0 18.9549C0 17.2076 1.26896 15.7568 2.93555 15.4735C2.91956 15.3371 2.91113 15.1981 2.91113 15.0575C2.91132 13.1072 4.49212 11.5263 6.44238 11.5262H6.78906Z" fill="#66A865"/>
<path d="M6.23224 25.7621C4.7219 24.6064 4.53045 22.5252 5.80508 21.1138L5.89869 21.0102C5.99606 20.9024 6.1005 20.8029 6.20856 20.7093C5.34535 19.5287 5.39867 17.9077 6.4511 16.7426L6.54406 16.6397C7.819 15.2283 10.0771 15.0205 11.5875 16.1763C12.4046 16.8016 12.8349 17.6977 12.8566 18.612C13.8371 18.4647 14.8732 18.6905 15.6902 19.3157C17.2003 20.4716 17.3908 22.5529 16.1159 23.9642L16.023 24.0671C14.9131 25.2956 13.058 25.612 11.5999 24.9108C11.5291 25.0084 11.452 25.1036 11.3687 25.1959L11.275 25.2995C10.0001 26.7105 7.74258 26.9177 6.23224 25.7621Z" fill="#66A865"/>
<path d="M14.2739 10.3896C16.246 10.3896 17.8452 11.9888 17.8452 13.9609C17.8452 14.1219 17.8327 14.2802 17.812 14.4355C19.3674 14.8212 20.5208 16.2257 20.521 17.9003C20.521 19.8725 18.9218 21.4716 16.9497 21.4716H16.5991C15.5561 21.4715 14.6181 21.0237 13.9653 20.3105C13.3124 21.0239 12.3738 21.4716 11.3306 21.4716H10.9809C9.00882 21.4716 7.40965 19.8725 7.40965 17.9003C7.40981 16.1336 8.69312 14.667 10.3784 14.3808C10.3622 14.243 10.353 14.103 10.353 13.9609C10.353 11.9889 11.9514 10.3898 13.9233 10.3896H14.2739Z" fill="#66A865"/>
<path d="M14.1691 8.78933C16.1412 8.78933 17.7403 10.3885 17.7403 12.3606C17.7403 12.5216 17.7278 12.6799 17.7071 12.8352C19.2625 13.221 20.416 14.6255 20.4161 16.3001C20.4161 18.2722 18.817 19.8714 16.8448 19.8714H16.4942C15.4513 19.8713 14.5132 19.4234 13.8605 18.7102C13.2076 19.4236 12.2689 19.8714 11.2257 19.8714H10.8761C8.90396 19.8714 7.30479 18.2722 7.30479 16.3001C7.30495 14.5333 8.58827 13.0667 10.2735 12.7805C10.2574 12.6428 10.2482 12.5027 10.2482 12.3606C10.2482 10.3886 11.8465 8.78957 13.8185 8.78933H14.1691Z" fill="#66A865"/>
<path d="M7.39604 8.32568C9.0139 8.32593 10.3256 9.63748 10.3257 11.2554C10.3257 11.3883 10.3126 11.5188 10.2955 11.647C11.573 11.9626 12.521 13.1137 12.521 14.4888C12.521 16.1067 11.2093 17.4183 9.59135 17.4184H9.30327C8.44602 17.4184 7.67787 17.0474 7.14214 16.4604C6.60643 17.0474 5.83824 17.4183 4.981 17.4184H4.69292C3.07493 17.4183 1.76332 16.1068 1.76323 14.4888C1.76323 13.0389 2.81678 11.8378 4.19975 11.603C4.18628 11.489 4.17827 11.373 4.17827 11.2554C4.17839 9.63738 5.48997 8.32578 7.10796 8.32568H7.39604Z" fill="#66A865"/>
<path d="M9.71083 11.1077C11.2702 11.1078 12.5341 12.3724 12.5341 13.9319C12.5341 14.0599 12.5223 14.1854 12.5058 14.3088C13.7367 14.6132 14.6501 15.7221 14.6503 17.0471C14.6503 18.6067 13.3856 19.8713 11.8261 19.8713H11.5497C10.7234 19.8713 9.98211 19.5142 9.46571 18.9485C8.94934 19.5139 8.20877 19.8713 7.38271 19.8713H7.10634C5.54678 19.8713 4.28212 18.6067 4.28212 17.0471C4.28227 15.6498 5.29776 14.4919 6.63075 14.2659C6.61782 14.1563 6.60928 14.0449 6.60927 13.9319C6.60927 12.3723 7.87394 11.1077 9.43349 11.1077H9.71083Z" fill="#66A865"/>
<path d="M20.3063 15.4326C20.4059 15.7608 20.4635 16.1081 20.4636 16.4688C20.4635 16.6652 20.4463 16.8581 20.4157 17.0459C20.5127 17.3702 20.568 17.7135 20.5681 18.0693C20.5676 20.0411 18.9686 21.6406 16.9968 21.6406H16.986C17.0856 22.5038 16.8193 23.4071 16.1638 24.1328L16.071 24.2354C14.9611 25.4637 13.1052 25.7802 11.6472 25.0791C11.5764 25.1765 11.4999 25.2721 11.4167 25.3643L11.3229 25.4678C10.048 26.8785 7.79024 27.086 6.27998 25.9307C5.14225 25.0601 4.75251 23.6638 5.17451 22.4248C4.78606 22.572 4.36555 22.6543 3.92548 22.6543H3.5788C1.6287 22.6541 0.0478569 21.0731 0.047554 19.1231C0.0476333 18.3862 0.273812 17.7019 0.659859 17.1357C1.29556 18.0677 2.36556 18.6796 3.5788 18.6797H3.92548C4.48841 18.6797 5.01975 18.5469 5.49189 18.3125C5.70415 18.7195 6.01127 19.0919 6.41181 19.3984C7.92215 20.5538 10.1799 20.3465 11.4548 18.9356L11.5485 18.832C11.6318 18.7399 11.7082 18.6443 11.779 18.5469C13.2371 19.2481 15.0929 18.9317 16.2028 17.7031L16.2556 17.6436C16.3839 17.6576 16.5141 17.666 16.6462 17.666H16.9968C18.4954 17.666 19.7765 16.7416 20.3063 15.4326Z" fill="#458244"/>
<path d="M9.42803 20.4774H11.1913L12.6283 33.1102H7.96833L9.42803 20.4774Z" fill="#93642D"/>
<path d="M9.41539 20.4774H11.2039L11.9611 27.2768H8.65378L9.41539 20.4774Z" fill="#714D22"/>
<path fill-rule="evenodd" clip-rule="evenodd" d="M8.93279 25.8604C6.17524 24.0331 5.84005 21.2875 6.03297 20.0889L7.27882 20.2588C7.13589 21.1468 7.38844 23.4087 9.66869 24.9197L8.93279 25.8604Z" fill="#714D22"/>
<path fill-rule="evenodd" clip-rule="evenodd" d="M11.0155 24.0058C13.7731 22.1784 14.1083 19.4328 13.9153 18.2343L12.6695 18.4041C12.8124 19.2921 12.5599 21.554 10.2796 23.0651L11.0155 24.0058Z" fill="#714D22"/>
<path d="M9.75777 13.7481C11.0594 13.7482 12.1142 14.8038 12.1142 16.1055C12.1142 16.2123 12.1045 16.317 12.0908 16.42C13.1184 16.674 13.8808 17.6 13.8808 18.7061C13.8808 20.0078 12.8251 21.0625 11.5234 21.0625H11.2929C10.6034 21.0625 9.98469 20.765 9.55367 20.293C9.12265 20.765 8.50397 21.0625 7.81441 21.0625H7.58395C6.28223 21.0625 5.22658 20.0078 5.22652 18.7061C5.22652 17.5397 6.07393 16.5727 7.18649 16.3838C7.17572 16.2925 7.16892 16.1997 7.16891 16.1055C7.16891 14.8038 8.22458 13.7481 9.52633 13.7481H9.75777Z" fill="#66A865"/>
<path d="M13.4289 15.376C14.3408 15.3763 15.0801 16.1155 15.0803 17.0274C15.0803 17.1022 15.0733 17.176 15.0637 17.2481C15.7838 17.4262 16.3176 18.0756 16.3176 18.8506C16.3175 19.7628 15.5784 20.502 14.6662 20.502H14.5041C14.021 20.502 13.5874 20.2937 13.2854 19.963C12.9833 20.2936 12.5497 20.502 12.0666 20.502H11.9045C10.9925 20.5018 10.2533 19.7627 10.2532 18.8506C10.2532 18.0332 10.8473 17.3559 11.6272 17.2237C11.6196 17.1594 11.6145 17.0937 11.6145 17.0274C11.6147 16.1153 12.3547 15.376 13.2668 15.376H13.4289Z" fill="#66A865"/>
<path d="M9.90388 15.3905C9.1356 16.4033 7.64592 16.6672 6.57637 15.9801L6.32167 15.8164C6.26598 15.7807 6.21422 15.7412 6.16303 15.7018C5.34991 16.3126 4.18566 16.3927 3.30508 15.827L3.05039 15.6634C1.98095 14.9761 1.73671 13.5981 2.50496 12.5852C2.92111 12.0366 3.54922 11.7101 4.2073 11.633C4.05913 11.0379 4.17569 10.3826 4.59182 9.83402C5.36013 8.82128 6.84982 8.55731 7.91933 9.2444L8.17402 9.40805C9.10308 10.0051 9.40904 11.1233 8.96982 12.0707C9.01479 12.0956 9.0601 12.1206 9.10376 12.1487L9.35845 12.3123C10.4278 12.9996 10.672 14.3776 9.90388 15.3905Z" fill="#83C082"/>
<path d="M32.2217 17.66H34.2457L35.8953 33.4158H30.5461L32.2217 17.66Z" fill="#93642D"/>
<path d="M32.2072 17.66H34.218L35.0923 26.1402H31.333L32.2072 17.66Z" fill="#714D22"/>
<path d="M39.3005 24.7009C41.3182 24.9043 39.9814 22.4778 39.006 20.3201C38.0307 18.1623 35.9205 14.1033 32.6815 14.1033C30.0274 14.1033 24.998 23.6274 26.1758 24.5235C27.118 25.2404 29.3298 24.6779 30.8021 23.5495C31.2438 24.5451 31.9106 25.0111 32.9707 25.0908C34.0307 25.1705 34.649 24.4456 35.4832 23.5495C35.7777 23.8814 37.5402 24.5235 39.3005 24.7009Z" fill="#66A865"/>
<path d="M32.6167 14.5126C35.5999 14.5127 37.7 17.6828 38.9165 20.0761C37.3356 19.7976 35.9305 19.2553 35.6607 18.9511C35.0049 20.2022 34.1454 21.3306 32.9937 21.2441C31.8422 21.1573 31.0545 20.0328 30.5747 18.9511C29.5928 19.7037 28.3077 20.2221 27.2251 20.332C28.8161 17.4432 31.0821 14.5126 32.6167 14.5126Z" fill="#458244"/>
<path d="M39.3005 19.2182C41.2316 19.8375 39.9814 16.9951 39.006 14.8373C38.0307 12.6796 35.9205 8.62059 32.6815 8.62059C30.0274 8.62059 24.998 18.1447 26.1758 19.0408C27.118 19.7576 29.3298 18.0006 30.8021 16.8722C31.2438 17.8679 31.9106 19.5284 32.9707 19.6081C34.0307 19.6877 34.649 17.7683 35.4832 16.8722C35.7777 17.2041 37.5402 18.6536 39.3005 19.2182Z" fill="#83C082"/>
<path d="M32.9659 8.218C34.5331 8.218 35.8565 9.09347 36.9366 10.2707C36.9917 10.4095 37.0464 10.5421 37.1026 10.6662C37.9315 12.4937 38.8512 14.3469 38.7638 14.3381C37.2681 14.1878 35.5341 13.5275 35.2833 13.2463C34.7703 14.2214 33.9819 14.8421 33.0812 14.7746C32.1804 14.707 31.3588 13.9567 30.9835 13.1135C29.733 14.0687 27.4131 14.4248 27.5733 14.1633C27.8473 13.7226 28.1016 13.2349 28.3458 12.7239C29.8407 10.3237 31.6653 8.21847 32.9659 8.218Z" fill="#458244"/>
<path d="M38.6767 12.7641C40.0755 13.2449 39.0317 10.7647 38.2396 9.00483C37.4475 7.24496 35.4487 4.46995 32.8249 4.28343C30.3713 4.109 26.3549 11.771 27.3114 12.5019C28.0766 13.0865 30.103 11.9339 31.2986 11.0135C31.6573 11.8256 32.1989 13.18 33.0597 13.2449C33.9206 13.3099 34.4227 11.7444 35.1002 11.0135C35.3393 11.2842 37.4294 12.3354 38.6767 12.7641Z" fill="#66A865"/>
<path d="M32.7912 2.62277C33.7204 2.62277 34.5634 2.93174 35.3215 3.42746C35.3321 3.45054 35.344 3.47323 35.3547 3.4968C36.4128 5.8376 38.0598 8.49708 37.9777 8.48019C37.3658 8.30534 35.4119 7.79195 35.092 7.43137C34.1435 8.62079 33.6936 9.35399 33.1691 9.35422C32.3801 9.35422 32.0603 8.35885 31.2453 7.43137C29.6505 8.65363 28.5417 8.56859 28.5353 8.56808C28.5353 8.56808 29.1257 6.38171 30.1594 4.40305C31.1023 3.3355 32.035 2.62296 32.7912 2.62277Z" fill="#458244"/>
<path d="M37.3591 7.24941C38.5427 7.9305 37.8153 5.72865 37.1618 4.25263C36.5083 2.77661 35.0945 0 32.9245 0C31.1462 0 27.7766 6.51506 28.5657 7.12804C29.197 7.61842 30.6789 6.4165 31.6653 5.6446C31.9612 6.32569 32.408 7.46161 33.1182 7.5161C33.8284 7.57059 34.2426 6.25758 34.8016 5.6446C34.9988 5.87163 36.4121 6.70454 37.3591 7.24941Z" fill="#83C082"/>
<path d="M55.8525 14.4213H58.3008L60.2962 33.4799H53.8257L55.8525 14.4213Z" fill="#93642D"/>
<path d="M55.835 14.4213H58.2673L59.3248 24.6793H54.7775L55.835 14.4213Z" fill="#714D22"/>
<path d="M56.2048 3.84809C57.5005 3.84823 58.6205 4.59742 59.157 5.68598C59.7385 5.35766 60.4103 5.17036 61.1257 5.17036C63.3402 5.17051 65.1353 6.96564 65.1355 9.18012V9.46723C65.1355 9.61773 65.1263 9.76635 65.1101 9.91254C66.7796 10.3974 68.0007 11.9382 68.0007 13.7641V14.0502C68.0006 16.2023 66.3045 17.9566 64.1765 18.0541C64.2885 19.0482 64.012 20.0845 63.322 20.9145L63.1482 21.1235C61.979 22.5298 60.0106 22.8799 58.4539 22.0629C58.3873 22.16 58.3168 22.2568 58.24 22.3491L58.0662 22.5571C56.7219 24.174 54.3209 24.3953 52.7039 23.0512C51.4669 22.0227 51.0475 20.3761 51.5203 18.935C51.0513 19.1304 50.5376 19.2407 49.9978 19.2407C47.8077 19.2405 46.0322 17.465 46.032 15.2748V14.9916C46.032 13.0867 47.375 11.4952 49.1658 11.1127C49.1545 10.9908 49.1482 10.8665 49.1482 10.7416V10.4584C49.1484 8.31438 50.8499 6.56833 52.9763 6.49555C53.2754 4.98611 54.6076 3.84809 56.2048 3.84809Z" fill="#66A865"/>
<path d="M56.5858 4.80866C57.9371 5.36807 58.5792 6.91743 58.0198 8.26873L57.9477 8.44287C57.9095 8.53522 57.8654 8.62398 57.8183 8.70955C58.7146 9.42701 59.0712 10.6744 58.61 11.7885L58.5379 11.9626C57.9785 13.3139 56.4291 13.9561 55.0778 13.3966C54.3458 13.0935 53.8247 12.4992 53.5873 11.8041C52.9281 12.1277 52.14 12.1803 51.4081 11.8775C50.0568 11.3181 49.4147 9.76871 49.9741 8.41741L50.0462 8.24326C50.5328 7.06798 51.7679 6.42924 52.9705 6.65085C52.9947 6.57259 53.0226 6.49438 53.0545 6.41719L53.1266 6.24304C53.686 4.89183 55.2345 4.24943 56.5858 4.80866Z" fill="#83C082"/>
<path d="M67.7842 12.7312C67.9017 13.1082 67.9687 13.5079 67.9688 13.9236V14.2097C67.9686 16.3617 66.2725 18.116 64.1445 18.2136C64.2565 19.2076 63.9799 20.244 63.29 21.074L63.1162 21.2829C61.947 22.6893 59.9786 23.0393 58.4219 22.2224C58.3553 22.3194 58.2847 22.4163 58.208 22.5085L58.0342 22.7165C56.6899 24.3334 54.2889 24.5548 52.6719 23.2107C51.435 22.1822 51.0155 20.5355 51.4883 19.0945C51.0193 19.2899 50.5056 19.4001 49.9658 19.4001C47.7757 19.3999 46.0002 17.6244 46 15.4343V15.1511C46.0001 14.3756 46.2255 13.6539 46.6104 13.0427C47.1208 14.6432 48.6191 15.8023 50.3887 15.8025C50.9285 15.8025 51.4422 15.6922 51.9111 15.4968C51.4384 16.9378 51.8579 18.5845 53.0947 19.613C54.7117 20.9571 57.1127 20.7358 58.457 19.1189L58.6309 18.9109C58.7076 18.8186 58.7782 18.7218 58.8447 18.6247C60.4015 19.4417 62.3698 19.0916 63.5391 17.6853L63.7129 17.4763C64.4028 16.6463 64.6793 15.61 64.5674 14.616C65.9256 14.5537 67.1065 13.8159 67.7842 12.7312Z" fill="#458244"/>
</svg>
