<svg width="48" height="73" viewBox="0 0 48 73" fill="none" xmlns="http://www.w3.org/2000/svg">
<path d="M3.24444 13.096C3.26406 13.1464 3.31917 13.1774 3.34042 13.2271C3.36166 13.2769 3.07819 13.4528 3.10296 13.5068C3.12773 13.5608 3.48999 13.4479 3.51286 13.497C3.53574 13.5462 3.10244 13.8084 3.12531 13.8576C3.14819 13.9067 3.49067 13.7959 3.51516 13.8444C3.53966 13.8929 3.3708 14.041 3.39629 14.0872C3.42178 14.1335 3.45016 14.1823 3.47565 14.2286C3.50114 14.2748 3.81977 14.1508 3.85339 14.1939C3.88701 14.237 3.42412 14.5819 3.45936 14.6244C3.49461 14.6668 3.60932 14.6633 3.63743 14.7067C3.66554 14.7501 3.60976 14.8616 3.64012 14.906C3.67049 14.9503 4.23528 14.6219 4.266 14.6623C4.29673 14.7028 4.21331 14.8252 4.24693 14.8682C4.28055 14.9113 4.42912 14.8554 4.46274 14.8984C4.49635 14.9415 4.11784 15.306 4.15245 15.3469C4.18706 15.3877 4.53997 15.1642 4.57459 15.205C4.6092 15.2458 4.48994 15.4252 4.52301 15.4573C4.55608 15.4893 4.81563 15.3433 4.8487 15.3754C4.88178 15.4075 4.50356 15.8449 4.54142 15.8845C4.57928 15.924 4.85453 15.727 4.89501 15.7637C4.93549 15.8003 4.97732 15.8309 5.01617 15.8682C5.05503 15.9055 5.08215 15.9511 5.12037 15.9867C5.15859 16.0224 5.09758 16.1735 5.13743 16.2085C5.17728 16.2436 5.14373 16.369 5.1852 16.4034C5.22667 16.4378 5.54108 16.1394 5.58418 16.1732C5.62728 16.2069 5.41216 16.5584 5.45716 16.5971C5.50215 16.6357 5.76509 16.3686 5.80918 16.4001C5.85327 16.4316 5.93717 16.3971 5.98063 16.427C6.02409 16.4569 5.75004 16.9455 5.7935 16.9754C5.83696 17.0053 5.92664 16.976 5.97173 17.0052C6.01681 17.0345 6.12725 16.9672 6.17171 16.9948C6.21616 17.0224 6.42373 16.7862 6.47469 16.8113C6.52564 16.8364 6.35092 17.234 6.39763 17.2626C6.44434 17.2912 6.57211 17.1722 6.61918 17.1969C6.66625 17.2217 6.58099 17.5076 6.62806 17.5324C6.67513 17.5571 6.74153 17.5593 6.78959 17.5818C6.83765 17.6043 6.93283 17.541 6.9809 17.5635C7.02896 17.586 7.05176 17.6782 7.10271 17.7033C7.15367 17.7284 7.41074 17.2539 7.46043 17.2758C7.51012 17.2976 7.38716 17.7368 7.43785 17.7564C7.48853 17.7759 7.68134 17.4201 7.72976 17.4387C7.77818 17.4573 7.798 17.5563 7.84995 17.5791C7.90189 17.6019 7.94508 17.6263 7.99449 17.6427C8.04391 17.659 7.98525 18.0469 8.03566 18.061C8.08607 18.0751 8.17797 17.9457 8.23651 17.9566C8.29505 17.9675 8.31632 18.0847 8.36645 18.0933C8.41659 18.1018 8.50876 17.9779 8.56017 17.9898C8.61157 18.0016 8.71834 17.7709 8.77073 17.7805C8.82312 17.79 8.87091 17.807 8.92394 17.8182C8.97697 17.8294 8.97087 18.1744 9.02235 18.1768C9.07384 18.1792 9.14265 18.13 9.19251 18.133C9.24238 18.1361 9.29497 18.1943 9.34835 18.2016C9.40174 18.2089 9.44469 18.3288 9.49618 18.3313C9.54767 18.3337 9.62636 18.1271 9.67911 18.1327C9.73186 18.1384 9.80627 17.8342 9.86002 17.8376C9.91376 17.8411 9.95788 17.94 10.0116 17.9434C10.0654 17.9468 10.1035 18.415 10.1582 18.4162C10.213 18.4173 10.2603 18.1349 10.3104 18.1435C10.3605 18.1521 10.4097 17.9176 10.4674 17.912C10.5251 17.9064 10.5843 18.2653 10.6378 18.2632C10.6913 18.2611 10.737 18.0804 10.7905 18.0783C10.844 18.0762 10.8709 17.7512 10.9231 17.7458C10.9753 17.7405 11.0798 18.2877 11.132 18.2824C11.1842 18.277 11.2409 18.24 11.2946 18.2191C11.3482 18.1982 11.376 18.0002 11.4263 17.99C11.4766 17.9798 11.525 17.9309 11.5857 17.9186C11.6464 17.9062 11.7167 18.0435 11.7693 18.0343C11.8218 18.0251 11.886 18.06 11.9379 18.0492C11.9898 18.0383 12.0391 17.9967 12.1005 17.9859C12.1618 17.9751 12.2119 17.9837 12.2632 17.9712C12.3145 17.9587 12.3513 17.8752 12.4068 17.8592C12.4624 17.8432 12.589 18.0916 12.6397 18.0774C12.6903 18.0633 12.6865 17.8514 12.7332 17.8369C12.78 17.8225 12.7687 17.6059 12.823 17.5867C12.8773 17.5674 13.004 17.7727 13.0534 17.7554C13.1028 17.738 13.1919 17.8082 13.2423 17.7886C13.2927 17.7689 13.3638 17.7881 13.4201 17.7643C13.4763 17.7405 13.5194 17.7069 13.575 17.6815C13.6307 17.6561 13.661 17.5994 13.7101 17.5765C13.7593 17.5536 13.8393 17.5861 13.8917 17.562C13.9441 17.5379 13.8383 17.2083 13.8887 17.1887C13.939 17.1691 13.8576 16.9069 13.9038 16.8814C13.95 16.8559 14.0277 16.8968 14.074 16.8713C14.1202 16.8458 14.1269 16.7571 14.1725 16.73C14.2181 16.7029 14.5416 17.1349 14.5866 17.1061C14.6316 17.0774 14.7012 17.0784 14.7492 17.0429C14.7971 17.0073 14.6973 16.7654 14.7416 16.735C14.786 16.7046 14.9355 16.8243 14.9798 16.7939C15.0242 16.7636 14.8635 16.4517 14.9072 16.4197C14.9509 16.3877 15.0233 16.4007 15.0729 16.3645C15.1225 16.3284 15.3694 16.5636 15.4109 16.5307C15.4523 16.4977 15.1853 16.0905 15.2261 16.0559C15.2669 16.0213 15.4519 16.1552 15.4946 16.1255C15.5374 16.0957 15.4589 15.9278 15.4974 15.8922C15.536 15.8566 15.9451 16.2103 15.9814 16.1737C16.0177 16.1371 15.8288 15.8587 15.8674 15.8231C15.906 15.7875 16.1635 15.9587 16.2008 15.9198C16.2381 15.881 16.1717 15.744 16.2058 15.697C16.2399 15.65 16.0953 15.4516 16.1304 15.4118C16.1654 15.3719 16.0468 15.1972 16.077 15.1592C16.1071 15.1213 16.2164 15.1424 16.2395 15.0959C16.2627 15.0495 16.1973 14.9345 16.2311 14.8914C16.2648 14.8483 16.4603 14.937 16.4925 14.8945C16.5246 14.8521 16.661 14.8851 16.6915 14.8432C16.7221 14.8014 16.6854 14.7071 16.7152 14.6636C16.7451 14.6202 16.7476 14.5593 16.7769 14.5142C16.8061 14.4691 16.6263 14.2957 16.6539 14.2513C16.6815 14.2068 17.2011 14.4595 17.2281 14.4134C17.2551 14.3674 17.2096 14.2746 17.2347 14.2236C17.2598 14.1727 17.3351 14.1546 17.3615 14.1069C17.3879 14.0592 17.2498 13.9257 17.2723 13.8776C17.2947 13.8296 17.3488 13.7954 17.3713 13.7473C17.3938 13.6993 17.4308 13.6549 17.4533 13.6069C17.4757 13.5588 17.4789 13.4995 17.4997 13.4521C17.5206 13.4047 17.3517 13.2738 17.3729 13.2225C17.3941 13.1712 17.6405 13.2175 17.6601 13.1668C17.6797 13.1162 17.7539 13.0854 17.7718 13.0354C17.7898 12.9853 17.8149 12.9344 17.8328 12.8843C17.8508 12.8343 17.9763 12.8154 17.9936 12.7637C18.011 12.712 17.8151 12.5935 17.8308 12.5425C17.8465 12.4914 17.8829 12.4454 17.8963 12.3934C17.9098 12.3414 17.6262 12.214 17.6396 12.1619C17.653 12.1099 17.5953 12.0481 17.6072 11.9873C17.6191 11.9265 17.6088 11.8856 17.6183 11.8332C17.6279 11.7808 17.8408 11.7747 17.852 11.7217C17.8632 11.6686 18.2388 11.6815 18.2484 11.6291C18.258 11.5767 18.0825 11.4915 18.0898 11.4381C18.0971 11.3847 18.2946 11.3584 18.3007 11.3017C18.3067 11.2451 18.2807 11.1878 18.2857 11.1334C18.2907 11.0791 17.9313 10.9924 17.9363 10.938C17.9414 10.8837 18.2526 10.8561 18.2577 10.8017C18.2627 10.7473 18.1985 10.6881 18.1944 10.6391C18.1903 10.5902 17.9385 10.5253 17.9419 10.4715C17.9453 10.4178 18.3018 10.367 18.302 10.3145C18.3022 10.262 18.0454 10.2085 18.0433 10.155C18.0412 10.1015 17.9455 10.0526 17.9459 10.0057C17.9463 9.9587 17.9546 9.90305 17.9519 9.84794C17.9492 9.79284 18.3957 9.70888 18.3914 9.65441C18.387 9.59993 17.9495 9.58678 17.9441 9.53456C17.9388 9.48235 17.9208 9.43131 17.9148 9.37748C17.9088 9.32364 17.8372 9.28409 17.8271 9.22438C17.817 9.16467 18.2444 9.05072 18.2368 8.99752C18.2291 8.94431 17.9285 8.9415 17.9177 8.88956C17.9068 8.83762 18.0206 8.75962 18.0091 8.70606C17.9976 8.65249 17.6777 8.67218 17.6652 8.62087C17.6527 8.56956 17.5613 8.5415 17.5488 8.49019C17.5363 8.43888 18.087 8.23763 18.0729 8.18696C18.0588 8.13628 17.4765 8.24684 17.4608 8.1968C17.4451 8.14675 17.6139 8.04173 17.5981 7.99169C17.5824 7.94164 17.4548 7.93138 17.4385 7.87971C17.4221 7.82804 17.929 7.5914 17.9094 7.541C17.8898 7.4906 17.8185 7.45656 17.7989 7.40615C17.7793 7.35575 17.2891 7.496 17.2679 7.44623C17.2466 7.39646 17.2311 7.35193 17.2115 7.30152C17.1919 7.25112 17.6586 6.98332 17.6315 6.93771C17.6044 6.89209 17.3089 6.96969 17.2844 6.92118C17.2599 6.87268 17.4144 6.73577 17.3918 6.69215C17.3692 6.64852 17.4955 6.51135 17.4694 6.46348C17.4432 6.41561 17.1208 6.52988 17.1012 6.47948C17.0816 6.42908 16.7841 6.54488 16.7563 6.49764C16.7286 6.4504 16.8386 6.32896 16.8117 6.28886C16.7849 6.24876 17.0736 5.9997 17.0527 5.94605C17.0318 5.89239 17.0895 5.78569 17.0591 5.74134C17.0287 5.697 16.4724 6.01839 16.443 5.98118C16.4135 5.94397 16.6793 5.67947 16.6473 5.63576C16.6154 5.59204 16.3722 5.71289 16.3393 5.67144C16.3063 5.62998 16.2484 5.6113 16.2138 5.57047C16.1792 5.52965 16.4864 5.20787 16.4518 5.16705C16.4172 5.12622 16.4235 5.0414 16.3885 5.00446C16.3535 4.96752 16.273 4.95769 16.2351 4.91814C16.1972 4.87858 16.0685 4.92306 16.0346 4.88387C16.0006 4.84467 16.1393 4.62403 16.1053 4.58483C16.0714 4.54563 15.8949 4.64053 15.856 4.60323C15.8172 4.56593 15.8667 4.4287 15.8279 4.3914C15.789 4.3541 15.6275 4.44882 15.587 4.41215C15.5465 4.37549 15.3 4.58378 15.265 4.54684C15.23 4.5099 15.2017 4.46104 15.1602 4.42663C15.1187 4.39223 15.1165 4.31444 15.0757 4.28166C15.0348 4.24888 15.2105 3.92588 15.1664 3.89437C15.1223 3.86285 14.8315 4.1689 14.7896 4.13838C14.7478 4.10786 14.8521 3.86129 14.8087 3.8314C14.7652 3.80151 14.7856 3.66627 14.734 3.63955C14.6824 3.61282 14.6538 3.55845 14.6077 3.53145C14.5616 3.50445 14.4646 3.55344 14.4185 3.52644C14.3725 3.49944 14.3673 3.39474 14.3196 3.36838C14.2719 3.34201 14.1329 3.48036 14.0871 3.45887C14.0413 3.43738 13.9375 3.51708 13.8898 3.49072C13.8421 3.46435 13.9568 3.11454 13.9087 3.09205C13.8607 3.06957 13.7506 3.16672 13.6993 3.1455C13.648 3.12429 13.5 3.32605 13.4526 3.3052C13.4051 3.28434 13.3193 3.35709 13.2673 3.33425C13.2154 3.31141 13.201 3.22152 13.1519 3.2013C13.1029 3.18108 13.0857 3.07918 13.035 3.05959C12.9843 3.04 12.9162 3.08149 12.8662 3.06353C12.8161 3.04556 12.8271 2.84284 12.7738 2.82614C12.7205 2.80944 12.6728 2.78308 12.6207 2.76963C12.5687 2.75618 12.4818 2.86488 12.4273 2.84494C12.3727 2.82499 12.3178 2.84262 12.2658 2.82917C12.2137 2.81573 12.1911 2.67101 12.141 2.66244C12.0908 2.65387 12.0457 2.59092 11.9927 2.57973C11.9397 2.56854 11.8735 2.6149 11.8162 2.60724C11.7589 2.59958 11.7346 2.3975 11.6893 2.38703C11.644 2.37657 11.4916 2.9564 11.4382 2.94909C11.3848 2.94179 11.3487 2.85851 11.2959 2.85283C11.2432 2.84716 11.2522 2.2932 11.1994 2.28753C11.1467 2.28185 11.069 2.48621 11.0146 2.48117C10.9602 2.47613 10.8809 2.8927 10.8271 2.88928C10.7734 2.88586 10.7437 2.48739 10.69 2.48397C10.6362 2.48055 10.5859 2.2792 10.5328 2.27741C10.4797 2.27562 10.4272 2.48702 10.366 2.48839C10.3047 2.48977 10.2629 2.73821 10.2082 2.73705C10.1534 2.73589 10.089 2.34908 10.0355 2.35117C9.98201 2.35327 9.95482 2.84127 9.90135 2.84337C9.84788 2.84546 9.79547 2.8022 9.74263 2.80592C9.68979 2.80964 9.62451 2.65157 9.57068 2.65754C9.51685 2.66352 9.48466 2.81647 9.43083 2.82245C9.37699 2.82842 9.29434 2.58725 9.24114 2.59485C9.18794 2.60245 9.08441 2.30762 9.03184 2.31684C8.97927 2.32607 8.95903 2.55301 8.9071 2.56386C8.85516 2.57472 8.84685 2.80824 8.79492 2.8191C8.74298 2.82995 8.65522 2.68625 8.60645 2.70523C8.55768 2.72422 8.52909 2.83832 8.47616 2.85144C8.42324 2.86455 8.31178 2.65518 8.25949 2.66992C8.2072 2.68465 8.14324 2.66462 8.09257 2.67873C8.0419 2.69283 8.11097 3.10593 8.06157 3.12329C8.01217 3.14064 7.99215 3.23831 7.94049 3.25467C7.88883 3.27104 7.81998 3.2192 7.77121 3.23819C7.72244 3.25717 7.70884 3.36169 7.65845 3.38131C7.60805 3.40093 7.47736 3.20466 7.4276 3.2259C7.37784 3.24715 7.39985 3.42393 7.34946 3.44355C7.29906 3.46317 7.20816 3.37872 7.15903 3.40159C7.1099 3.42446 7.02271 3.35917 6.96609 3.38683C6.90946 3.41449 6.80138 3.29554 6.75289 3.32004C6.70439 3.34453 6.78551 3.61064 6.73928 3.63613C6.69304 3.66162 6.50977 3.44088 6.46417 3.468C6.41856 3.49511 6.47048 3.69583 6.42488 3.72294C6.37927 3.75006 6.18716 3.54026 6.14219 3.569C6.09721 3.59774 6.25533 3.94622 6.21036 3.97496C6.16538 4.0037 5.90441 3.70836 5.85943 3.7371C5.81446 3.76584 5.75214 3.77887 5.69687 3.80038C5.6416 3.8219 5.61036 3.8715 5.56665 3.90349C5.52295 3.93549 5.83169 4.42566 5.78311 4.45955C5.73452 4.49344 5.27908 3.99671 5.24089 4.02843C5.20269 4.06015 5.38798 4.37745 5.34717 4.41206C5.30635 4.44667 5.33575 4.56067 5.29557 4.59691C5.25539 4.63314 5.25984 4.71192 5.22129 4.74752C5.18273 4.78312 4.82718 4.48529 4.78926 4.52252C4.75133 4.55975 5.0388 4.93276 5.00088 4.96999C4.96296 5.00722 4.61419 4.74606 4.57437 4.77841C4.53455 4.81076 4.90514 5.23381 4.87011 5.27366C4.83508 5.3135 4.37662 4.96772 4.33834 5.00884C4.30006 5.04995 4.69901 5.45447 4.65747 5.49685C4.61594 5.53923 4.14792 5.21215 4.11415 5.25525C4.08038 5.29835 4.41328 5.62935 4.38113 5.67181C4.34899 5.71428 4.08781 5.58192 4.05567 5.62439C4.02353 5.66685 4.06828 5.76739 4.03614 5.80986C4.00399 5.85233 4.16791 6.02817 4.13803 6.07163C4.10815 6.11509 4.02424 6.11592 3.98876 6.16905C3.95328 6.22218 4.02693 6.31521 3.99515 6.35379C3.96337 6.39237 3.84458 6.38057 3.8147 6.42403C3.78482 6.46749 3.87483 6.57849 3.85109 6.62331C3.82735 6.66812 3.43608 6.51899 3.41623 6.56417C3.39637 6.60934 3.63437 6.79754 3.61027 6.84624C3.58617 6.89494 3.46215 6.88892 3.43904 6.93536C3.41593 6.9818 3.02378 6.85923 2.99968 6.90792C2.97558 6.95662 3.48188 7.24258 3.45941 7.29065C3.43693 7.33872 3.09049 7.24703 3.07028 7.29609C3.05006 7.34515 2.99787 7.38418 2.97829 7.43487C2.9587 7.48555 3.09668 7.59474 3.07872 7.64479C3.06076 7.69484 2.94623 7.71321 2.9364 7.76009C2.92658 7.80698 2.80582 7.8334 2.79599 7.88028C2.78616 7.92717 2.65827 7.95449 2.64257 8.00553C2.62687 8.05658 2.82374 8.17279 2.80967 8.2232C2.7956 8.27362 2.51549 8.26095 2.50367 8.31236C2.49186 8.36377 3.06217 8.55928 3.05099 8.61231C3.03981 8.66534 2.76422 8.65467 2.7524 8.70607C2.74059 8.75748 2.95967 8.85381 2.94849 8.90684C2.93731 8.95987 2.60273 8.95156 2.59543 9.00495C2.58814 9.05834 2.97424 9.17017 2.96694 9.22356C2.95965 9.27695 2.59743 9.2794 2.59176 9.33216C2.58609 9.38492 2.95972 9.47913 2.95243 9.53252C2.94513 9.58591 2.60641 9.60542 2.60724 9.65565C2.60807 9.70588 2.8808 9.78133 2.87676 9.83345C2.87271 9.88558 2.41079 9.91561 2.40737 9.96936C2.40396 10.0231 2.60234 10.0807 2.60182 10.1371C2.6013 10.1934 2.61153 10.2437 2.612 10.2979C2.61247 10.352 2.308 10.4162 2.30269 10.4651C2.29738 10.5139 2.71453 10.5613 2.71988 10.6135C2.72523 10.6657 2.44144 10.735 2.44517 10.7878C2.44889 10.8407 2.72296 10.8763 2.72668 10.9291C2.73041 10.982 2.34303 11.0785 2.34711 11.1274C2.35119 11.1764 2.48002 11.2236 2.486 11.2774C2.49198 11.3313 2.60111 11.3712 2.60619 11.4179C2.61126 11.4646 2.33165 11.5734 2.34088 11.626C2.35012 11.6786 2.39467 11.7305 2.40417 11.7886C2.41368 11.8467 2.52841 11.8769 2.53737 11.924C2.54633 11.971 2.92136 11.9486 2.94035 11.9974C2.95933 12.0462 2.55391 12.2021 2.56703 12.255C2.58015 12.308 3.09083 12.2253 3.10557 12.2776C3.12031 12.3299 2.88108 12.4511 2.89682 12.5011C2.91255 12.5512 2.97083 12.5903 2.9872 12.6419C3.00357 12.6936 3.13599 12.702 3.15399 12.753C3.17198 12.804 3.23748 12.8328 3.25646 12.8816C3.27545 12.9304 3.22482 13.0456 3.24444 13.096Z" fill="#169E3B"/>
<path d="M7.61974 3.43571L12.7886 17.3492L12.776 17.3167C12.8077 17.456 12.8423 17.5736 12.8839 17.6997C12.9255 17.8258 12.9782 17.9419 13.0257 18.0639C13.1303 18.3073 13.26 18.5392 13.4129 18.7557C13.5715 18.9798 13.7641 19.1777 13.9838 19.3423C14.2137 19.511 14.4761 19.6301 14.7545 19.6919L14.8641 19.1512C14.4404 19.0571 14.0674 18.8075 13.8187 18.4517C13.6806 18.2683 13.5623 18.0709 13.4658 17.8626C13.4234 17.7536 13.3713 17.6485 13.3393 17.5374C13.3072 17.4263 13.2629 17.3125 13.2338 17.204L13.2249 17.1812L13.2205 17.1698L7.61974 3.43571Z" fill="#386845"/>
<path d="M13.0172 17.1236C13.0172 17.1236 13.383 16.7939 13.8702 16.2467C14.1124 15.9745 14.3881 15.6538 14.6717 15.2906C14.9672 14.9159 15.2436 14.5264 15.4999 14.1238C15.6368 13.9226 15.7487 13.705 15.8717 13.5017C15.9947 13.2984 16.0816 13.0792 16.1898 12.8761L16.4413 12.2671L16.6195 11.7053L16.7202 11.2186C16.7448 11.0944 16.7583 10.9682 16.7606 10.8415L16.7873 10.511L16.7451 10.8401C16.7346 10.9663 16.7138 11.0915 16.683 11.2144L16.5597 11.6911C16.4985 11.861 16.4307 12.0428 16.3586 12.2375L16.084 12.8255C15.9727 13.0205 15.8652 13.2253 15.7383 13.4282C15.6113 13.6311 15.487 13.8312 15.343 14.0239C15.0653 14.4166 14.7686 14.7942 14.4739 15.1336C14.1792 15.473 13.8923 15.7794 13.6405 16.0365C13.1317 16.5473 12.7689 16.8514 12.7689 16.8514L13.0172 17.1236Z" fill="#386845"/>
<path d="M12.0904 14.6609C12.0904 14.6609 12.3469 14.2765 12.6923 13.6777C13.1239 12.9556 13.5179 12.2117 13.8727 11.4489C14.0648 11.0334 14.2365 10.609 14.3844 10.205C14.5158 9.83689 14.6287 9.46239 14.7226 9.08294C14.764 8.91517 14.7839 8.75952 14.813 8.62274C14.8377 8.50488 14.8537 8.38537 14.861 8.26517L14.8914 7.95377L14.8455 8.26373C14.8323 8.38274 14.8106 8.50066 14.7807 8.6166C14.747 8.7514 14.7187 8.90471 14.6677 9.06688C14.5566 9.43665 14.4257 9.80013 14.2753 10.1557C14.1081 10.5485 13.918 10.9595 13.7076 11.3615C13.3219 12.0988 12.8987 12.816 12.4399 13.5101C12.0643 14.0794 11.7966 14.4401 11.7966 14.4401L12.0904 14.6609Z" fill="#386845"/>
<path d="M11.1387 12.2642C11.1387 12.2642 11.3351 11.9705 11.5947 11.5119C11.9038 10.9543 12.1719 10.375 12.3969 9.77854C12.5142 9.45929 12.6144 9.13405 12.6972 8.80417C12.7323 8.64444 12.7746 8.4932 12.7976 8.34567C12.8207 8.19815 12.8453 8.05938 12.8588 7.93056L12.886 7.57733C12.8958 7.47244 12.8879 7.38003 12.8886 7.30487L12.8791 7.06891L12.8688 7.30695C12.869 7.3976 12.8642 7.4882 12.8546 7.57833L12.8041 7.9294C12.7828 8.0575 12.7498 8.19392 12.7209 8.33621C12.6921 8.4785 12.647 8.62712 12.6018 8.78513C12.5082 9.09303 12.3883 9.41494 12.2565 9.73025C12.005 10.3067 11.713 10.8646 11.3825 11.3997C11.1093 11.8375 10.9095 12.1081 10.9095 12.1081L11.1387 12.2642Z" fill="#386845"/>
<path d="M10.0134 9.44071C10.0134 9.44071 10.0459 9.39436 10.0993 9.30057C10.1526 9.20679 10.2197 9.06647 10.3034 8.91595C10.3452 8.83599 10.3794 8.74591 10.4234 8.65204C10.4673 8.55817 10.5117 8.46041 10.545 8.3538C10.6279 8.13657 10.6991 7.91509 10.7585 7.6903C10.8238 7.46714 10.8742 7.23988 10.9093 7.01002C10.9495 6.81367 10.9779 6.61507 10.9941 6.4153C11.0152 6.06072 11.0307 5.82629 11.0307 5.82629L10.9653 6.41341C10.9423 6.61259 10.9059 6.81001 10.8565 7.00434C10.8101 7.22671 10.7498 7.44592 10.6758 7.6607C10.6125 7.88755 10.5131 8.09851 10.4344 8.30514C10.3958 8.40813 10.3419 8.50029 10.2983 8.59028C10.2547 8.68027 10.2176 8.76773 10.1715 8.84182C10.0852 8.99523 10.0125 9.12092 9.95633 9.20269C9.90018 9.28446 9.86732 9.33469 9.86732 9.33469L10.0134 9.44071Z" fill="#386845"/>
<path d="M12.8925 16.8033C12.8925 16.8033 12.4196 16.8244 11.6994 16.7921C11.34 16.7729 10.9211 16.745 10.4748 16.6903C10.0051 16.6382 9.53823 16.5625 9.0761 16.4634C8.83969 16.4187 8.61132 16.3466 8.38214 16.2916C8.15295 16.2367 7.93541 16.1491 7.71995 16.0813L7.11999 15.8337C6.93686 15.7384 6.76241 15.6509 6.60087 15.5677C6.43933 15.4846 6.31202 15.3787 6.1877 15.2998C6.08236 15.23 5.98297 15.1515 5.89053 15.0654L5.6369 14.8514L5.87843 15.0776C5.96635 15.1687 6.06157 15.2525 6.16314 15.3281C6.28349 15.416 6.42191 15.5119 6.56801 15.6179L7.07748 15.912L7.67293 16.1914C7.88993 16.2679 8.11136 16.3559 8.33025 16.4373C8.54914 16.5187 8.79116 16.5874 9.02648 16.6437C9.49277 16.7668 9.96502 16.866 10.4414 16.9411C10.891 17.0188 11.3159 17.0668 11.6784 17.1036C12.4048 17.171 12.8998 17.173 12.8998 17.173L12.8925 16.8033Z" fill="#386845"/>
<path d="M11.9796 14.3764C11.9796 14.3764 11.5385 14.2916 10.8769 14.126C10.0715 13.9219 9.27693 13.6769 8.4964 13.3919C8.06305 13.2405 7.65163 13.0636 7.26288 12.8873C6.9117 12.7269 6.56945 12.5476 6.23764 12.3502C6.09037 12.2653 5.96587 12.1715 5.84832 12.0955C5.74835 12.0302 5.65321 11.9577 5.56362 11.8787L5.3202 11.6814L5.55314 11.8903C5.63978 11.9739 5.7324 12.0511 5.83027 12.1213C5.94258 12.203 6.0641 12.3036 6.20803 12.3992C6.5334 12.6159 6.8698 12.8155 7.21586 12.9973C7.59793 13.195 8.01143 13.3916 8.43387 13.5679C9.20898 13.8932 10.0004 14.1782 10.8048 14.4218C11.4616 14.623 11.9131 14.7393 11.9131 14.7393L11.9796 14.3764Z" fill="#386845"/>
<path d="M11.0558 12.0512C11.0558 12.0512 10.7259 11.9924 10.2283 11.8491C9.62347 11.6795 9.03178 11.4662 8.45791 11.2108C8.15179 11.0722 7.85305 10.9179 7.56286 10.7485C7.4276 10.6607 7.29028 10.5868 7.17155 10.4983C7.05283 10.4097 6.93529 10.3337 6.83689 10.2541C6.73849 10.1744 6.64624 10.0961 6.5623 10.0296C6.47836 9.96301 6.42423 9.89609 6.36676 9.83982C6.26149 9.73289 6.20149 9.67012 6.20149 9.67012L6.3589 9.8485C6.41186 9.90278 6.46689 9.97684 6.54496 10.0475L6.80384 10.2894C6.90089 10.3752 7.01446 10.4602 7.1312 10.5533C7.24794 10.6464 7.38617 10.7274 7.51194 10.8245C7.79688 11.0108 8.09114 11.1824 8.39355 11.3388C8.96264 11.6261 9.55187 11.8717 10.1566 12.0736C10.6497 12.2392 11.0011 12.3196 11.0011 12.3196L11.0558 12.0512Z" fill="#386845"/>
<path d="M9.95836 9.29925C9.95836 9.29925 9.8982 9.28897 9.80352 9.26216C9.70885 9.23536 9.56829 9.19646 9.40098 9.14176C9.31696 9.1183 9.23051 9.07893 9.13592 9.04273C9.04133 9.00654 8.9425 8.97386 8.84448 8.92402C8.63681 8.82988 8.43417 8.72503 8.23736 8.6099C8.03481 8.50144 7.84011 8.37891 7.6547 8.2432C7.48601 8.13419 7.32518 8.01349 7.17339 7.88198L6.72829 7.49356C6.72829 7.49356 6.89816 7.65585 7.15343 7.90285C7.29999 8.03961 7.45518 8.16681 7.61804 8.28368C7.79887 8.4299 7.98967 8.56333 8.18906 8.683C8.38478 8.80848 8.58703 8.92349 8.79493 9.02756C8.8916 9.08354 8.99395 9.12046 9.08619 9.16506C9.17844 9.20967 9.26652 9.2484 9.35307 9.27837C9.51965 9.34083 9.6604 9.39464 9.76348 9.42379C9.81529 9.44172 9.86803 9.45681 9.92148 9.46901L9.95836 9.29925Z" fill="#386845"/>
<path d="M4.10055 62.4275C4.11353 62.6628 4.18726 62.8908 4.3146 63.0893C4.44193 63.2878 4.61855 63.4502 4.82732 63.5606C5.03609 63.671 5.26992 63.7257 5.50614 63.7195C5.74236 63.7132 5.97294 63.6462 6.17553 63.5248L7.23945 62.8905L7.31545 64.492C7.32599 64.7117 7.39285 64.9249 7.50965 65.1114C7.62644 65.2979 7.78927 65.4514 7.98254 65.5572C8.17581 65.663 8.39307 65.7176 8.61354 65.7157C8.834 65.7139 9.0503 65.6556 9.24174 65.5465C9.62789 65.3264 9.94833 65.0076 10.1701 64.6231C10.392 64.2385 10.5071 63.802 10.5039 63.3584L10.7864 56.6919C9.42347 57.5915 8.0407 58.4615 6.69263 59.3809C5.57584 60.1405 4.013 60.8589 4.10055 62.4275Z" fill="#87C12F"/>
<path d="M12.1345 65.3834C12.3418 65.4966 12.5748 65.5545 12.811 65.5516C13.0473 65.5487 13.2788 65.4849 13.4831 65.3666C13.6875 65.2483 13.8578 65.0794 13.9775 64.8763C14.0972 64.6731 14.1623 64.4426 14.1666 64.207L14.188 62.9696L15.5923 63.7522C15.7846 63.8596 16.0014 63.9159 16.2219 63.9158C16.4423 63.9156 16.659 63.859 16.8512 63.7513C17.0434 63.6437 17.2046 63.4885 17.3195 63.3009C17.4343 63.1132 17.4989 62.8993 17.507 62.6796C17.5232 62.2372 17.4213 61.7984 17.2117 61.4082C17.0022 61.0179 16.6924 60.6902 16.3142 60.4585L10.7898 56.6968C10.8344 58.3247 10.8459 59.9559 10.9153 61.5839C10.9698 62.93 10.7534 64.6288 12.1345 65.3834Z" fill="#87C12F"/>
<path d="M19.1574 59.3842C19.3538 59.2531 19.5129 59.0737 19.6192 58.8633C19.7256 58.6528 19.7756 58.4186 19.7645 58.1832C19.7534 57.9478 19.6814 57.7192 19.5557 57.5197C19.4299 57.3202 19.2546 57.1565 19.0467 57.0445L17.9663 56.4546L19.3094 55.5731C19.4934 55.4522 19.6432 55.2862 19.7446 55.091C19.8459 54.8959 19.8954 54.6781 19.8883 54.4584C19.8812 54.2387 19.8177 54.0245 19.7039 53.8363C19.5901 53.6481 19.4298 53.4921 19.2384 53.3833C18.8517 53.1639 18.4134 53.0511 17.9686 53.0566C17.5238 53.0621 17.0885 53.1857 16.7074 53.4146L10.8112 56.5683C12.2799 57.2801 13.7354 58.0216 15.2156 58.7103C16.4315 59.2804 17.8473 60.2591 19.1574 59.3842Z" fill="#87C12F"/>
<path d="M17.117 50.429C17.0903 50.1936 17.0026 49.9691 16.8627 49.7776C16.7228 49.5861 16.5354 49.4341 16.3188 49.3366C16.1023 49.2391 15.864 49.1993 15.6275 49.2213C15.3909 49.2433 15.1641 49.3261 14.9693 49.4618L13.9484 50.1621L13.7716 48.5671C13.7472 48.3493 13.6674 48.1413 13.5396 47.963C13.4118 47.7847 13.2403 47.642 13.0416 47.5485C12.8428 47.455 12.6234 47.4138 12.4041 47.4289C12.1849 47.4439 11.9732 47.5147 11.7891 47.6345C11.4174 47.8783 11.1175 48.2163 10.92 48.6138C10.7226 49.0114 10.6348 49.4542 10.6657 49.8968L10.7996 56.5683C12.103 55.5797 13.428 54.6306 14.7166 53.6305C15.7855 52.8033 17.3053 51.9894 17.117 50.429Z" fill="#87C12F"/>
<path d="M8.63873 48.0415C8.42196 47.949 8.18493 47.9139 7.95054 47.9394C7.71615 47.9649 7.49232 48.0503 7.30067 48.1873C7.10902 48.3243 6.95602 48.5082 6.85645 48.7214C6.75688 48.9345 6.71411 49.1697 6.73226 49.4042L6.82808 50.6366L5.35611 49.9891C5.15462 49.8997 4.9335 49.8633 4.7139 49.8835C4.4943 49.9037 4.28357 49.9798 4.10188 50.1045C3.92019 50.2291 3.77363 50.3982 3.6762 50.5955C3.57878 50.7929 3.53376 51.0118 3.54545 51.2315C3.57094 51.6746 3.71411 52.1029 3.96029 52.4727C4.20646 52.8424 4.5468 53.1402 4.9464 53.3355L10.8029 56.5617C10.603 54.9437 10.4395 53.3224 10.2164 51.7076C10.0364 50.3813 10.0859 48.6627 8.63873 48.0415Z" fill="#87C12F"/>
<path d="M2.40058 53.8941C2.20633 54.0284 2.05019 54.2106 1.94732 54.4228C1.84445 54.6351 1.79835 54.8702 1.81347 55.1055C1.8286 55.3408 1.90445 55.5681 2.03366 55.7655C2.16287 55.963 2.34105 56.1237 2.55091 56.2322L3.65118 56.8023L2.32128 57.7069C2.13942 57.8309 1.9925 57.9995 1.89457 58.1963C1.79664 58.3932 1.75095 58.6119 1.76189 58.8313C1.77283 59.0508 1.84002 59.2639 1.95704 59.4501C2.07406 59.6363 2.23701 59.7895 2.43031 59.895C2.82079 60.1078 3.26106 60.2132 3.70586 60.2001C4.15067 60.1871 4.58398 60.0562 4.96126 59.8208L10.8029 56.5683C9.31607 55.8812 7.85235 55.1628 6.36055 54.4988C5.12811 53.9501 3.69413 52.9978 2.40058 53.8941Z" fill="#87C12F"/>
<path d="M8.89805 64.8973C9.05797 65.0708 9.26007 65.2002 9.48481 65.273C9.70954 65.3457 9.9493 65.3594 10.1809 65.3127C10.4125 65.266 10.6281 65.1604 10.8068 65.0062C10.9855 64.8521 11.1213 64.6545 11.201 64.4327L11.6173 63.2678L12.6978 64.4574C12.8455 64.6204 13.0326 64.7429 13.2414 64.8131C13.4501 64.8834 13.6734 64.899 13.89 64.8584C14.1065 64.8179 14.3089 64.7227 14.478 64.5818C14.647 64.4409 14.7769 64.2591 14.8553 64.0537C15.0138 63.639 15.0588 63.1896 14.9856 62.7518C14.9125 62.314 14.7238 61.9035 14.439 61.5624L10.413 56.2322C9.93224 57.7909 9.42175 59.3381 8.96248 60.9034C8.58416 62.1951 7.83247 63.7407 8.89805 64.8973Z" fill="#3D8709"/>
<path d="M16.9882 62.0946C17.2207 62.0515 17.438 61.9492 17.6191 61.7976C17.8003 61.6461 17.9391 61.4505 18.0222 61.2297C18.1053 61.009 18.1298 60.7706 18.0934 60.5376C18.0569 60.3046 17.9608 60.085 17.8143 59.8999L17.0428 58.9311L18.6271 58.646C18.8441 58.6072 19.0475 58.5134 19.2177 58.3737C19.3879 58.2339 19.5193 58.0529 19.5992 57.848C19.6792 57.6431 19.705 57.4211 19.6742 57.2034C19.6434 56.9856 19.557 56.7794 19.4234 56.6045C19.1543 56.2513 18.7958 55.9758 18.3847 55.8064C17.9736 55.637 17.5247 55.5798 17.0841 55.6406L10.4197 56.2322C11.4919 57.463 12.5376 58.7152 13.628 59.9296C14.5217 60.9314 15.4403 62.3863 16.9882 62.0946Z" fill="#3D8709"/>
<path d="M18.5957 53.0142C18.6639 52.7886 18.6726 52.5492 18.6209 52.3192C18.5692 52.0892 18.4589 51.8764 18.3005 51.7014C18.1422 51.5264 17.9412 51.3951 17.7171 51.3203C17.493 51.2455 17.2533 51.2296 17.0213 51.2743L15.8037 51.5099L16.2811 49.9776C16.346 49.7676 16.3559 49.5445 16.3099 49.3297C16.2638 49.1148 16.1634 48.9153 16.0181 48.7501C15.8729 48.5849 15.6876 48.4596 15.4801 48.386C15.2725 48.3124 15.0495 48.2931 14.8323 48.3299C14.3937 48.4053 13.9831 48.5959 13.6428 48.882C13.3026 49.1681 13.0448 49.5394 12.8961 49.9578L10.347 56.1267C11.9362 55.7461 13.5321 55.3984 15.1164 54.9931C16.4232 54.6603 18.1397 54.5186 18.5957 53.0142Z" fill="#3D8709"/>
<path d="M11.3183 47.3841C11.1479 47.22 10.9377 47.1027 10.7083 47.0436C10.4789 46.9844 10.2381 46.9855 10.0093 47.0467C9.78044 47.1079 9.57137 47.2272 9.40242 47.3928C9.23347 47.5585 9.11037 47.7649 9.04512 47.9921L8.71471 49.1801L7.55827 48.0597C7.40086 47.905 7.20617 47.7934 6.99296 47.7355C6.77974 47.6776 6.55518 47.6755 6.3409 47.7293C6.12662 47.7831 5.92984 47.891 5.76951 48.0427C5.60917 48.1943 5.49069 48.3846 5.42547 48.5952C5.29303 49.0189 5.27618 49.4701 5.37664 49.9025C5.47711 50.3349 5.69126 50.7327 5.99708 51.0551L10.3469 56.1251C10.7302 54.54 11.1449 52.9648 11.5034 51.3748C11.8007 50.0632 12.455 48.4732 11.3183 47.3841Z" fill="#3D8709"/>
<path d="M3.24812 50.9019C3.02099 50.9673 2.81462 51.09 2.64902 51.2583C2.48342 51.4265 2.36419 51.6346 2.30287 51.8623C2.24156 52.09 2.24024 52.3297 2.29904 52.558C2.35784 52.7864 2.47477 52.9957 2.63851 53.1658L3.49758 54.0572L1.94135 54.4955C1.72896 54.5546 1.53534 54.667 1.37906 54.8222C1.22279 54.9773 1.1091 55.1699 1.0489 55.3814C0.988697 55.593 0.984002 55.8164 1.03527 56.0303C1.08653 56.2442 1.19203 56.4414 1.34165 56.6029C1.64303 56.9292 2.02601 57.1697 2.45132 57.2997C2.87663 57.4297 3.32895 57.4445 3.76191 57.3427L10.3404 56.1267C9.15751 55.003 7.99778 53.8545 6.79673 52.7473C5.81376 51.8345 4.7614 50.4735 3.24812 50.9019Z" fill="#3D8709"/>
<path d="M2.15279 59.3809C2.08847 59.6078 2.084 59.8474 2.13981 60.0766C2.19561 60.3057 2.30981 60.5166 2.47133 60.6888C2.63285 60.861 2.83622 60.9887 3.06174 61.0595C3.28726 61.1302 3.5273 61.1417 3.75858 61.0928L4.97284 60.8358L4.52183 62.3764C4.45988 62.5874 4.45334 62.8108 4.50282 63.0251C4.5523 63.2394 4.65615 63.4374 4.80441 63.6001C4.95267 63.7629 5.14037 63.8849 5.34951 63.9546C5.55865 64.0242 5.78221 64.039 5.99877 63.9977C6.43579 63.9148 6.84283 63.7174 7.17815 63.4259C7.51346 63.1343 7.76497 62.759 7.90689 62.3385L10.3486 56.1267C8.76596 56.5353 7.17668 56.9094 5.60062 57.3411C4.29715 57.697 2.58232 57.8683 2.15279 59.3809Z" fill="#3D8709"/>
<path d="M9.25719 63.4886C9.39248 63.6353 9.56346 63.7448 9.75359 63.8063C9.94371 63.8678 10.1465 63.8794 10.3425 63.8399C10.5384 63.8004 10.7208 63.7111 10.872 63.5807C11.0232 63.4503 11.138 63.2832 11.2055 63.0956L11.5577 62.1103L12.4717 63.1165C12.5967 63.2544 12.755 63.358 12.9316 63.4174C13.1082 63.4768 13.2971 63.49 13.4803 63.4557C13.6635 63.4214 13.8348 63.3409 13.9778 63.2217C14.1208 63.1025 14.2307 62.9487 14.297 62.7751C14.4311 62.4243 14.4691 62.0442 14.4073 61.6739C14.3454 61.3036 14.1858 60.9564 13.9448 60.6679L10.5388 56.1596C10.1321 57.478 9.70024 58.7866 9.3117 60.1105C8.99165 61.2031 8.35572 62.5103 9.25719 63.4886Z" fill="#87C12F"/>
<path d="M16.1066 61.0943C16.3032 61.0581 16.487 60.9721 16.6403 60.8448C16.7935 60.7176 16.9109 60.5532 16.9812 60.3678C17.0515 60.1823 17.0722 59.9821 17.0414 59.7863C17.0106 59.5906 16.9293 59.4061 16.8053 59.2507L16.1528 58.4368L17.4928 58.1973C17.6764 58.1647 17.8484 58.0859 17.9924 57.9686C18.1364 57.8512 18.2475 57.6991 18.3151 57.527C18.3827 57.3548 18.4045 57.1683 18.3785 56.9854C18.3524 56.8025 18.2794 56.6293 18.1663 56.4824C17.9388 56.1856 17.6355 55.9542 17.2878 55.8119C16.9401 55.6696 16.5604 55.6216 16.1877 55.6727L10.5508 56.1696C11.4576 57.2035 12.3422 58.2555 13.2644 59.2756C14.0204 60.1171 14.7973 61.3393 16.1066 61.0943Z" fill="#87C12F"/>
<path d="M17.4611 53.4343C17.5189 53.2441 17.5263 53.0423 17.4825 52.8484C17.4388 52.6545 17.3454 52.4751 17.2115 52.3275C17.0775 52.18 16.9075 52.0694 16.7179 52.0063C16.5283 51.9432 16.3256 51.9298 16.1293 51.9675L15.0993 52.1661L15.5032 50.8743C15.558 50.6973 15.5664 50.5093 15.5275 50.3281C15.4885 50.147 15.4036 49.9788 15.2807 49.8395C15.1578 49.7002 15.0011 49.5946 14.8255 49.5326C14.6499 49.4705 14.4612 49.4543 14.2775 49.4852C13.9065 49.5488 13.5592 49.7095 13.2713 49.9507C12.9834 50.1919 12.7654 50.5049 12.6396 50.8576L10.4831 56.0583C11.8276 55.7374 13.1776 55.4443 14.5179 55.1026C15.6234 54.822 17.0754 54.7025 17.4611 53.4343Z" fill="#87C12F"/>
<path d="M11.2918 48.6793C11.148 48.5407 10.9708 48.4417 10.7773 48.3918C10.5839 48.3419 10.3807 48.3428 10.1877 48.3945C9.99474 48.4461 9.81842 48.5468 9.67593 48.6866C9.53344 48.8265 9.42962 49.0008 9.37459 49.1925L9.09592 50.1954L8.1206 49.2496C7.98785 49.119 7.82365 49.0247 7.64383 48.9759C7.46401 48.9271 7.27462 48.9253 7.0939 48.9707C6.91318 49.0161 6.74721 49.1072 6.61199 49.2352C6.47677 49.3632 6.37684 49.5239 6.32183 49.7016C6.21014 50.0593 6.19592 50.4403 6.28066 50.8053C6.36539 51.1702 6.546 51.5061 6.80392 51.7783L10.4725 56.0583C10.7958 54.7202 11.1455 53.3904 11.4478 52.0481C11.6986 50.9409 12.2504 49.5987 11.2918 48.6793Z" fill="#87C12F"/>
<path d="M4.48007 51.6668C4.28782 51.7218 4.11315 51.825 3.97297 51.9665C3.8328 52.108 3.73188 52.283 3.67998 52.4745C3.62808 52.666 3.62697 52.8675 3.67674 53.0596C3.72651 53.2516 3.82549 53.4277 3.96408 53.5707L4.69122 54.3203L3.37398 54.6889C3.1942 54.7385 3.03032 54.8331 2.89804 54.9636C2.76577 55.0941 2.66954 55.256 2.61858 55.4339C2.56763 55.6118 2.56365 55.7997 2.60704 55.9796C2.65043 56.1595 2.73973 56.3253 2.86638 56.4611C3.12147 56.7355 3.44564 56.9378 3.80564 57.0471C4.16563 57.1564 4.54849 57.1689 4.91495 57.0832L10.4832 56.0606C9.48195 55.1157 8.50032 54.1499 7.48372 53.2187C6.6517 52.4511 5.76096 51.3066 4.48007 51.6668Z" fill="#87C12F"/>
<path d="M3.56687 58.816C3.51259 59.0083 3.50882 59.2114 3.55591 59.4056C3.60301 59.5998 3.69937 59.7785 3.83568 59.9244C3.97198 60.0703 4.1436 60.1785 4.33391 60.2385C4.52423 60.2985 4.72678 60.3083 4.92196 60.2668L5.94665 60.049L5.56605 61.3546C5.51377 61.5334 5.50825 61.7227 5.55 61.9043C5.59176 62.0859 5.6794 62.2537 5.80451 62.3916C5.92962 62.5296 6.08802 62.633 6.26451 62.692C6.44099 62.751 6.62965 62.7636 6.8124 62.7286C7.18119 62.6583 7.52469 62.491 7.80765 62.2439C8.09061 61.9968 8.30285 61.6788 8.42261 61.3225L10.4831 56.0583C9.14756 56.4046 7.80641 56.7215 6.47641 57.0874C5.37645 57.389 3.92934 57.5342 3.56687 58.816Z" fill="#87C12F"/>
<path d="M12.7804 55.8203C12.8337 56.12 12.8273 56.4274 12.7615 56.7247C12.6956 57.022 12.5718 57.3034 12.3969 57.553C12.222 57.8025 11.9995 58.0153 11.7422 58.1791C11.4849 58.3429 11.1977 58.4545 10.8971 58.5076C10.5965 58.561 10.2883 58.5547 9.99011 58.4892C9.69193 58.4236 9.40964 58.3001 9.15938 58.1256C8.90912 57.9512 8.6958 57.7292 8.53163 57.4724C8.36745 57.2157 8.25565 56.9292 8.20261 56.6293C8.09497 56.024 8.23272 55.401 8.58558 54.897C8.93844 54.3931 9.47752 54.0495 10.0843 53.9419C10.6916 53.8345 11.3167 53.9721 11.8223 54.3243C12.3279 54.6766 12.6725 55.2146 12.7804 55.8203Z" fill="#3D8709"/>
<circle cx="0.27029" cy="0.27029" r="0.27029" transform="matrix(1 0 0 -1 9.26685 56.6326)" fill="#87C12F"/>
<circle cx="0.27029" cy="0.27029" r="0.27029" transform="matrix(1 0 0 -1 10.99 57.1732)" fill="#87C12F"/>
<ellipse cx="0.253397" cy="0.27029" rx="0.253397" ry="0.27029" transform="matrix(1 0 0 -1 9.60474 55.4839)" fill="#87C12F"/>
<ellipse cx="0.185824" cy="0.202717" rx="0.185824" ry="0.202717" transform="matrix(1 0 0 -1 10.0778 57.8151)" fill="#87C12F"/>
<ellipse cx="0.253397" cy="0.27029" rx="0.253397" ry="0.27029" transform="matrix(1 0 0 -1 11.3278 56.0245)" fill="#87C12F"/>
<circle cx="0.27029" cy="0.27029" r="0.27029" transform="matrix(1 0 0 -1 10.1115 56.4637)" fill="#87C12F"/>
<circle cx="0.27029" cy="0.27029" r="0.27029" transform="matrix(1 0 0 -1 11.8346 57.0043)" fill="#87C12F"/>
<path d="M32.064 32.0625C32.0709 32.0936 32.0772 32.1253 32.0847 32.1593C32.0916 32.1588 32.1002 32.1605 32.1066 32.1576C32.7384 31.8503 33.4118 31.7194 34.107 31.6969C34.7925 31.6744 35.4808 31.7171 36.1559 31.8376C36.483 31.8958 36.8079 31.9714 37.1264 32.0671C37.2871 32.1155 37.4467 32.1691 37.6034 32.2291C37.6817 32.2591 37.76 32.2902 37.8372 32.3231C37.896 32.3479 37.9605 32.3721 37.9864 32.4355C38.01 32.4932 37.9968 32.5606 37.9916 32.62C37.9438 33.1746 37.832 33.7287 37.7047 34.2701C37.5498 34.9447 37.3349 35.5979 37.0003 36.2079C36.6069 36.9234 36.0827 37.512 35.3708 37.9237C35.202 38.0211 35.0229 38.0949 34.8455 38.1745C34.8374 38.1878 34.8253 38.1958 34.8115 38.2016C34.4878 38.3273 34.1687 38.461 33.815 38.4876C33.398 38.5193 32.9856 38.5014 32.5795 38.4005C32.129 38.2887 31.7304 38.0707 31.3739 37.7761C31.098 37.5478 30.8566 37.2866 30.6504 36.9937C30.6153 36.9441 30.5704 36.898 30.564 36.8323C30.5825 36.7769 30.6378 36.7585 30.6775 36.7262C30.871 36.57 30.9753 36.3751 30.9586 36.1214C30.9546 36.0649 30.9436 36.0107 30.9281 35.9571C30.9183 35.9236 30.9039 35.8902 30.9194 35.8539C30.9425 35.817 30.9805 35.7997 31.0162 35.7783C31.644 35.4042 32.3116 35.1165 32.9902 34.8484C33.5316 34.6345 34.1013 34.5347 34.6623 34.3992C34.8818 34.3462 35.1024 34.2978 35.3247 34.2551C34.8213 34.288 34.3225 34.3566 33.8282 34.4529C33.4815 34.5209 33.1284 34.5659 32.7949 34.6892C32.1659 34.9222 31.5553 35.1937 30.9949 35.5685C30.9384 35.606 30.8895 35.6544 30.8278 35.6844C30.8048 35.6884 30.7887 35.6757 30.7743 35.6607C30.6159 35.493 30.4195 35.4036 30.1914 35.3834C30.1706 35.3817 30.1505 35.3794 30.1332 35.3655C30.1113 35.1822 30.1407 35.0012 30.1712 34.823C30.2138 34.5768 30.268 34.3318 30.3469 34.0937C30.427 33.8538 30.5439 33.633 30.708 33.4404C30.8854 33.2317 31.0415 33.0063 31.2259 32.8033C31.4136 32.5975 31.625 32.4217 31.86 32.2735C31.9464 32.2187 32.0455 32.1801 32.064 32.0625Z" fill="#87C12F"/>
<path d="M30.0981 42.8671C29.9961 42.9927 29.897 43.1202 29.7928 43.2435C29.4748 43.6171 29.1396 43.9717 28.7347 44.2554C28.2197 44.6169 27.65 44.8262 27.0303 44.9213C26.4191 45.0153 25.812 45.1358 25.2015 45.2309C24.8495 45.2857 24.4924 45.3018 24.1353 45.2961C23.9982 45.2938 23.9066 45.2315 23.845 45.1075C23.758 44.9317 23.7096 44.7432 23.6445 44.5598C23.4354 43.9729 23.2765 43.3721 23.1751 42.7564C23.1215 42.4294 23.1261 42.0979 23.1192 41.7681C23.1083 41.2389 23.1422 40.7131 23.2851 40.1999C23.3197 40.0754 23.3634 39.9532 23.4049 39.8309C23.4118 39.8108 23.4216 39.7935 23.4072 39.7733C23.5109 39.4994 23.6509 39.2446 23.8052 38.9961C23.9786 38.7182 24.16 38.4466 24.3783 38.2016C24.5828 37.9721 24.8115 37.7692 25.0552 37.5824C25.3501 37.3558 25.6513 37.139 25.9854 36.9735C26.2544 36.8398 26.5326 36.7262 26.8246 36.6489C26.8557 36.6409 26.8874 36.6293 26.9191 36.6484C26.9439 36.6714 26.9508 36.7037 26.9623 36.7343C27.009 36.8553 27.0769 36.9591 27.1979 37.0185C27.2474 37.0427 27.2705 37.0716 27.2394 37.1286C27.0683 37.4411 27.2134 37.7617 27.4991 37.9214C27.5337 37.941 27.578 37.9491 27.5936 37.994C27.5348 38.1019 27.4363 38.1751 27.3569 38.2656C27.0257 38.6438 26.7354 39.0509 26.4675 39.4758C26.1075 40.0471 25.8253 40.656 25.5845 41.285C25.5234 41.4447 25.4797 41.609 25.4474 41.7877C25.6576 41.3317 25.8679 40.8877 26.0931 40.4519C26.4952 39.6741 26.9709 38.9436 27.5377 38.2748C27.6074 38.1924 27.6616 38.0944 27.7583 38.0367C27.8528 38.0281 27.9461 38.043 28.04 38.043C28.0751 38.084 28.0509 38.1284 28.0417 38.1687C27.9951 38.3728 27.9484 38.5769 27.9467 38.7879C27.9438 39.2163 28.0296 39.6314 28.1362 40.0437C28.2439 40.4594 28.434 40.8382 28.6644 41.1968C28.8095 41.4222 28.9737 41.635 29.1574 41.8316C29.2352 41.9146 29.2836 42.0166 29.3481 42.1077C29.5376 42.3753 29.7761 42.5926 30.033 42.7921C30.0589 42.8111 30.0981 42.8227 30.0981 42.8671Z" fill="#87C12F"/>
<path d="M30.0981 42.8671C29.9288 42.7552 29.7801 42.6168 29.6327 42.4785C29.5002 42.3545 29.3792 42.215 29.2888 42.057C29.1967 41.8967 29.0676 41.7687 28.953 41.628C28.7842 41.4205 28.6304 41.202 28.4974 40.9708C28.2434 40.5314 28.0855 40.0552 27.9986 39.5571C27.9513 39.2861 27.9081 39.0128 27.9225 38.7355C27.9346 38.5031 27.9894 38.2789 28.0464 38.0552C28.0625 38.0217 28.0959 38.0154 28.1259 38.005C28.1794 37.9871 28.2301 37.9618 28.2716 37.9237C28.3263 37.8724 28.3684 37.8741 28.4179 37.9341C28.5124 38.0482 28.6345 38.1249 28.7785 38.1612C29.0048 38.2189 29.2174 38.2028 29.3936 38.0263C29.4104 38.0096 29.4288 37.994 29.4536 37.9923C29.4956 38.0038 29.5002 38.0419 29.5112 38.0748C29.7162 38.7118 30.0405 39.2774 30.533 39.7358C30.7415 39.9301 30.9621 40.1134 31.2092 40.2605C31.2467 40.283 31.2858 40.3014 31.3463 40.3187C31.2714 40.2397 31.2184 40.1671 31.1539 40.1031C30.9039 39.8569 30.6597 39.6055 30.4356 39.3351C30.1004 38.9309 29.8608 38.4732 29.6909 37.9785C29.677 37.9381 29.6212 37.8972 29.6719 37.8453C29.7606 37.8511 29.8498 37.8424 29.938 37.858C29.9501 37.8649 29.9708 37.8799 29.9547 37.8885C29.885 37.926 29.9241 37.9635 29.9495 38.0015C30.3204 38.5642 30.7899 39.0313 31.3325 39.4268C31.5732 39.602 31.818 39.771 32.0819 39.9099C32.1861 39.9653 32.295 40.0091 32.4084 40.0448C32.242 39.9151 32.0801 39.7808 31.9131 39.6534C31.4252 39.2809 30.9581 38.886 30.537 38.4386C30.4402 38.3359 30.3487 38.2275 30.2594 38.118C30.1839 38.0252 30.1154 37.926 30.0238 37.847C30.0342 37.8193 30.0607 37.8107 30.0825 37.7969C30.3567 37.6262 30.4973 37.3835 30.4823 37.0566C30.4806 37.0151 30.4788 36.973 30.457 36.9372C30.4057 36.853 30.423 36.8271 30.5341 36.8138C30.5491 36.8121 30.5635 36.815 30.575 36.8254C30.6701 37.0064 30.7997 37.1638 30.9333 37.3149C31.3382 37.7709 31.8152 38.1278 32.3992 38.3244C32.6308 38.4022 32.871 38.4374 33.1141 38.4605C33.2523 38.4737 33.39 38.4743 33.5276 38.4749C33.8899 38.476 34.239 38.4149 34.5719 38.2656C34.6595 38.2264 34.7505 38.1912 34.8461 38.1722C35.175 38.547 35.3178 39.0099 35.4371 39.4764C35.6248 40.2132 35.7568 40.9627 35.8408 41.718C35.895 42.2046 35.9077 42.6947 35.8506 43.1836C35.8351 43.3196 35.7873 43.4465 35.7452 43.5751C35.7222 43.6448 35.66 43.6685 35.5949 43.6835C35.4244 43.7221 35.2493 43.7227 35.0765 43.7325C34.2758 43.7792 33.4746 43.7717 32.6751 43.7008C32.2904 43.6667 31.9062 43.6258 31.5312 43.5336C31.0105 43.4067 30.5364 43.1738 30.0981 42.8671Z" fill="#3D8709"/>
<path d="M32.064 32.0625C32.0824 32.157 32.0294 32.2049 31.9534 32.2452C31.7126 32.3732 31.5058 32.5485 31.314 32.7388C31.1516 32.8996 31.0191 33.0887 30.8774 33.268C30.8083 33.3557 30.7374 33.4416 30.6683 33.5286C30.4604 33.791 30.3544 34.0989 30.2801 34.4183C30.2138 34.7037 30.1482 34.9902 30.1505 35.286C30.1505 35.3113 30.1401 35.3373 30.1343 35.3632C30.0814 35.403 30.0543 35.3961 30.0422 35.3356C30.0301 35.2727 30.041 35.207 30.0255 35.1441C30.0226 35.1095 30.0105 35.0767 30.0053 35.0421C29.9978 34.9827 30.0111 34.925 30.0186 34.8662C30.0445 34.6725 30.0318 34.4788 30.0111 34.2857C30.0042 34.2217 30.0209 34.1796 30.0773 34.1467C30.2144 34.0666 30.268 33.938 30.2547 33.7875C30.2409 33.6278 30.143 33.5263 29.995 33.4721C29.8492 33.4185 29.7035 33.4335 29.5635 33.4883C29.4097 33.5482 29.3366 33.6762 29.3326 33.8348C29.3285 33.9824 29.419 34.0798 29.5445 34.1461C29.5785 34.164 29.6148 34.1755 29.6522 34.1848C29.7818 34.2165 29.7882 34.2263 29.8043 34.3623C29.8152 34.4534 29.8268 34.5439 29.821 34.635C29.8193 34.6696 29.8245 34.7071 29.7882 34.7302C29.7553 34.7417 29.7323 34.7204 29.707 34.706C29.3832 34.5249 29.0388 34.6235 28.8602 34.9464C28.8429 34.9775 28.8366 35.0225 28.7871 35.0254C28.794 34.8536 28.7231 34.6985 28.6788 34.5382C28.6696 34.5042 28.6563 34.4719 28.6402 34.4407C28.6344 34.3946 28.6604 34.356 28.6725 34.3139C28.7076 34.1917 28.6765 34.0885 28.5878 34.0003C28.5607 33.9737 28.5279 33.9518 28.5175 33.912C28.4236 33.5546 28.3591 33.1919 28.3038 32.827C28.2485 32.4591 28.1921 32.0913 28.1644 31.7206C28.1327 31.3026 28.0815 30.8869 28.0319 30.4712C28.0308 30.4597 28.0291 30.4475 28.0164 30.4245C28.0003 30.5006 27.9876 30.568 27.9859 30.6349C27.9789 30.8759 27.9473 31.1169 27.9784 31.3591C27.9968 31.5021 27.9916 31.6479 27.9956 31.7915C28.0152 32.4782 28.0999 33.1556 28.2595 33.8238C28.2635 33.8411 28.2664 33.8584 28.2652 33.8763C28.2485 33.9236 28.2019 33.9236 28.165 33.938C27.9916 34.006 27.8897 34.1951 27.9334 34.375C27.9565 34.4702 28.0193 34.5347 28.1074 34.5739C28.1529 34.5941 28.1915 34.6195 28.1978 34.6731C28.2099 34.7746 28.2243 34.8766 28.2163 34.9798C28.2105 34.9902 28.2036 35 28.1926 35.0046C27.9519 35.109 27.82 35.3044 27.7422 35.5448C27.7267 35.5846 27.7359 35.6267 27.7295 35.6676C27.7267 35.6849 27.7238 35.7057 27.7053 35.7115C27.6852 35.7184 27.6731 35.6999 27.6644 35.6855C27.5631 35.5206 27.4888 35.3454 27.4473 35.1562C27.4358 35.1032 27.4698 35.068 27.4968 35.0294C27.6103 34.8662 27.5948 34.6558 27.449 34.5428C27.3211 34.4436 27.1679 34.4102 27.0153 34.4736C26.869 34.5347 26.7734 34.6546 26.7469 34.8138C26.721 34.9689 26.8459 35.1539 27.0222 35.1857C27.1743 35.2127 27.2353 35.2871 27.2601 35.4266C27.2768 35.5189 27.32 35.6054 27.3597 35.6907C27.3764 35.7259 27.3932 35.7622 27.3517 35.7939C27.2923 35.821 27.2509 35.885 27.176 35.8815C26.6996 35.5731 26.3771 35.1315 26.1064 34.6448C26.0021 34.4569 25.903 34.2661 25.7999 34.0769C25.016 32.6384 25.3241 30.7779 25.9025 29.3238C26.1778 28.632 26.5424 27.9747 27.0147 27.3982C27.0954 27.3002 27.1743 27.2021 27.2388 27.0926C27.2929 27.0009 27.3874 26.979 27.4824 27.0194C28.9628 27.6513 30.2305 28.858 31.1758 30.1414C31.5404 30.6367 31.8549 31.1573 32.0156 31.7569C32.0426 31.8572 32.0657 31.9581 32.064 32.0625Z" fill="#87C12F"/>
<path d="M25.4278 32.9336C25.4872 33.0028 25.4751 33.0933 25.4947 33.1735C25.5851 33.5436 25.7135 33.897 25.9088 34.2262C26.0194 34.4125 26.1081 34.6119 26.2187 34.7982C26.395 35.0939 26.5994 35.3701 26.8517 35.6071C26.9283 35.6791 27.017 35.738 27.1023 35.8002C27.1334 35.8233 27.1645 35.8446 27.1818 35.8804C27.1777 35.9115 27.1593 35.9207 27.1305 35.915C26.509 35.6815 25.8748 35.4929 25.2222 35.3672C24.8582 35.2975 24.4959 35.215 24.1255 35.1804C24.0552 35.1741 23.9855 35.1735 23.9153 35.1787C24.2396 35.2554 24.5604 35.3447 24.8841 35.4214C25.5177 35.5708 26.1386 35.7691 26.7694 35.9294C26.8632 35.9536 26.9606 35.9611 27.0533 35.9916C27.066 36.0666 27.0349 36.1162 26.9548 36.1508C26.5574 36.149 26.1605 36.1208 25.7637 36.1006C25.3812 36.0816 24.9993 36.0551 24.618 36.0222C24.0754 35.9755 23.5305 35.9651 22.9885 35.9069C22.7252 35.8786 22.4597 35.8752 22.1947 35.8654C22.4781 35.949 22.769 36.0014 23.061 36.0406C23.5662 36.1081 24.0691 36.1963 24.5765 36.2459C24.8611 36.2736 25.1456 36.2909 25.4307 36.3122C25.8189 36.341 26.2072 36.3439 26.596 36.3451C26.7031 36.3456 26.8068 36.3295 26.9116 36.3139C26.9399 36.4275 26.9237 36.5405 26.9111 36.6541C26.6513 36.7008 26.4122 36.8092 26.1726 36.9118C25.7066 37.1119 25.3063 37.4151 24.9112 37.7271C24.4181 38.1168 24.0575 38.6132 23.7396 39.1471C23.6278 39.3345 23.5334 39.5299 23.4464 39.7294C23.4372 39.7496 23.4257 39.7646 23.4067 39.7744C23.337 39.8113 23.0322 39.6873 22.9528 39.666C22.7955 39.6239 22.6388 39.5778 22.4845 39.5247C22.17 39.4175 21.8601 39.2861 21.5732 39.1177C21.0358 38.8029 20.5831 38.3388 20.2029 37.8504C19.7404 37.2566 19.4219 36.5936 19.0296 35.9582C18.9853 35.8861 18.9916 35.81 19.0429 35.7426C19.5762 35.0357 20.2386 34.356 20.9391 33.814C22.1947 32.8414 23.8628 32.3276 25.3967 32.918C25.4077 32.9215 25.4175 32.9278 25.4278 32.9336Z" fill="#3D8709"/>
<path d="M26.9692 36.1422C26.9998 36.0949 27.0303 36.0476 27.0602 36.0009C27.0683 35.9519 27.0994 35.9248 27.1443 35.911C27.1564 35.9006 27.1685 35.8896 27.1806 35.8792C27.233 35.8475 27.286 35.8158 27.3384 35.7841C27.3937 35.7576 27.411 35.8008 27.4312 35.836C27.5089 35.9715 27.5913 36.1047 27.6961 36.2211C27.8718 36.416 28.0711 36.5792 28.3171 36.6772C28.3776 36.7014 28.453 36.7331 28.4939 36.6657C28.5319 36.6034 28.4617 36.5596 28.4202 36.5215C28.2981 36.4108 28.1621 36.3163 28.0452 36.1987C27.9663 36.1185 27.9001 36.028 27.8252 35.9455C27.7157 35.825 27.6956 35.689 27.7244 35.5379C27.8044 35.2848 27.9352 35.0761 28.203 34.9867C28.2618 35.0819 28.2451 35.1926 28.2606 35.2952C28.3257 35.7328 28.4501 36.1462 28.726 36.5019C28.7641 36.5509 28.8044 36.5982 28.8562 36.6328C28.8833 36.6507 28.9161 36.6732 28.9455 36.6507C28.9806 36.6236 28.9501 36.5907 28.9369 36.5642C28.8539 36.3912 28.7618 36.2234 28.6944 36.0436C28.5815 35.742 28.4732 35.4399 28.4357 35.1176C28.43 35.068 28.4173 35.0185 28.4438 34.9706C28.4956 34.936 28.5394 34.9706 28.5855 34.9867C28.6137 35.0017 28.6466 35.0127 28.6679 35.0352C28.7157 35.0848 28.7531 35.083 28.7865 35.0225C28.8038 34.9925 28.8228 34.9631 28.8389 34.932C29.0215 34.5843 29.4443 34.4874 29.76 34.7204C29.7646 34.7238 29.7709 34.7238 29.7767 34.7256C29.8193 34.7411 29.8101 34.7757 29.8055 34.8074C29.7369 35.2848 29.5192 35.6815 29.1563 35.9986C29.1183 36.0315 29.0734 36.0539 29.0273 36.0747C28.9449 36.1122 28.9132 36.1594 28.9322 36.2119C28.9564 36.2794 29.0348 36.3186 29.1131 36.2996C29.2646 36.2621 29.3827 36.1681 29.4915 36.0643C29.7421 35.8239 29.8763 35.5189 29.9604 35.188C29.9691 35.1545 29.9667 35.1165 30.0002 35.0928C30.0359 35.0807 30.0278 35.1182 30.0422 35.1303C30.0693 35.192 30.0635 35.2571 30.0624 35.3211C30.0612 35.3805 30.0854 35.3869 30.1315 35.3638C30.412 35.358 30.6361 35.4739 30.8204 35.6792C30.8837 35.7224 30.9143 35.7841 30.9246 35.8585C30.969 35.9992 30.9984 36.1416 30.9736 36.2903C30.9327 36.54 30.7726 36.6985 30.5716 36.8277C30.5289 36.8363 30.4863 36.845 30.4425 36.8536C30.628 37.2001 30.3936 37.6988 30.022 37.8574C30.003 37.8799 29.9811 37.8885 29.9523 37.877C29.8521 37.8787 29.7507 37.8891 29.6523 37.8591C29.6085 37.8735 29.5808 37.8441 29.5578 37.8274C29.5468 37.8954 29.5296 37.9618 29.4564 37.9992C29.1114 38.3117 28.6811 38.284 28.3776 37.9283C28.3568 37.9041 28.3418 37.8793 28.3102 37.9145C28.2382 37.9946 28.1408 38.0275 28.0417 38.0569C27.9415 38.0753 27.8419 38.0575 27.7417 38.0523C27.6806 38.058 27.6247 38.0494 27.5832 37.9986C27.4848 37.941 27.3811 37.8926 27.301 37.8055C27.1219 37.6112 27.0867 37.3518 27.2123 37.12C27.2244 37.0981 27.2607 37.071 27.2112 37.0514C27.0309 36.9793 26.9566 36.8265 26.9064 36.6541C26.8776 36.5429 26.8961 36.431 26.9053 36.3192C26.8955 36.2477 26.9116 36.1877 26.9692 36.1422Z" fill="#78B247"/>
<path d="M30.9275 35.8573C30.893 35.7974 30.8578 35.738 30.8233 35.678C30.9442 35.5506 31.0992 35.4682 31.2472 35.3811C31.7552 35.0813 32.2921 34.842 32.8479 34.6472C33.1428 34.5434 33.4516 34.5036 33.7557 34.4413C34.1313 34.3641 34.5114 34.3139 34.891 34.2643C35.0275 34.2465 35.1652 34.2384 35.3023 34.228C35.3328 34.2257 35.3662 34.2171 35.4025 34.2436C35.3363 34.3012 35.2533 34.2937 35.1813 34.3087C34.7395 34.4016 34.3023 34.5128 33.8611 34.6074C33.3404 34.7192 32.8537 34.9233 32.3664 35.1286C31.8704 35.3379 31.3878 35.5754 30.9275 35.8573Z" fill="#3D8709"/>
<path d="M33.9411 35.5097C33.7308 35.5575 33.535 35.6129 33.3403 35.674C32.9964 35.7824 32.6508 35.8856 32.3052 35.9899C32.1958 36.0228 32.0852 36.0528 31.9752 36.0822C31.947 36.0897 31.913 36.0949 31.8957 36.0632C31.8784 36.0315 31.9107 36.0153 31.9285 35.9992C32.0512 35.885 32.1998 35.8129 32.3542 35.7564C32.6935 35.6325 33.0437 35.55 33.4014 35.5005C33.5436 35.4809 33.6859 35.4612 33.8299 35.4659C33.865 35.4676 33.9008 35.4653 33.9411 35.5097Z" fill="#3D8709"/>
<path d="M27.5873 37.9969C27.6403 38.0148 27.6933 38.0327 27.7457 38.0505C27.3776 38.4933 27.0188 38.943 26.7095 39.4302C26.4128 39.8978 26.1381 40.3769 25.9054 40.8803C25.7631 41.1876 25.603 41.4862 25.4682 41.7975C25.4618 41.8125 25.463 41.8391 25.4394 41.8339C25.4094 41.827 25.4238 41.8022 25.4267 41.7826C25.4567 41.5594 25.5321 41.349 25.6122 41.1409C25.7412 40.8053 25.8887 40.4772 26.0517 40.1584C26.3195 39.6343 26.6346 39.1373 26.9946 38.6703C27.1599 38.4559 27.3315 38.2477 27.5216 38.0552C27.5418 38.0344 27.5654 38.0165 27.5873 37.9969Z" fill="#3D8709"/>
<path d="M26.6541 41.2665C26.6841 41.1063 26.7428 40.9569 26.8073 40.8105C26.9317 40.5286 27.0452 40.2403 27.2209 39.9843C27.2439 39.9509 27.271 39.9191 27.2992 39.8897C27.3205 39.8684 27.3419 39.8263 27.377 39.8494C27.4116 39.8724 27.3839 39.9088 27.3701 39.9364C27.3159 40.0477 27.2647 40.1607 27.2036 40.268C27.1189 40.4161 27.0481 40.5718 26.9692 40.7229C26.8834 40.8872 26.7993 41.0521 26.7134 41.2164C26.7013 41.2377 26.6979 41.27 26.6541 41.2665Z" fill="#3D8709"/>
<path d="M29.9564 37.8753C29.9794 37.8689 30.0024 37.8626 30.0261 37.8557C30.0779 37.8516 30.1044 37.8874 30.132 37.9231C30.4097 38.2863 30.7242 38.6144 31.0629 38.9217C31.496 39.3149 31.9632 39.6655 32.4251 40.0218C32.443 40.0356 32.4666 40.046 32.4591 40.0817C32.3324 40.0627 32.2178 40.0079 32.1089 39.9485C31.6585 39.7035 31.242 39.41 30.8572 39.0693C30.4984 38.7516 30.185 38.3965 29.9195 37.9969C29.8752 37.9318 29.8573 37.8903 29.9564 37.8753Z" fill="#87C12F"/>
<path d="M29.461 37.9981C29.4812 37.9664 29.5111 37.9364 29.5186 37.9018C29.5411 37.802 29.5918 37.8142 29.6563 37.858C29.7323 37.9946 29.7692 38.1474 29.8308 38.2898C29.9898 38.6559 30.1868 38.9984 30.4402 39.3068C30.6649 39.5801 30.912 39.8321 31.1608 40.0817C31.2293 40.1503 31.2921 40.2241 31.3578 40.2956C31.3687 40.3077 31.3889 40.3193 31.3733 40.3389C31.3595 40.3567 31.3422 40.3452 31.3255 40.3389C31.1493 40.2731 31.0035 40.1578 30.8607 40.0408C30.6971 39.907 30.5295 39.7785 30.3838 39.6228C30.1701 39.3939 29.9875 39.1443 29.8337 38.871C29.677 38.5936 29.5572 38.3013 29.461 37.9981Z" fill="#87C12F"/>
<path d="M33.0282 41.289C33.0196 41.3173 32.9971 41.3109 32.9781 41.3063C32.8848 41.2821 32.7903 41.2614 32.7022 41.2204C32.4735 41.1155 32.2357 41.025 32.0577 40.8359C32.0369 40.814 31.9943 40.7926 32.0185 40.7574C32.0415 40.7246 32.0784 40.7505 32.1055 40.7655C32.401 40.9275 32.6965 41.0907 32.9914 41.2533C33.0069 41.2619 33.023 41.2689 33.0282 41.289Z" fill="#87C12F"/>
<path d="M30.0106 35.0951C29.9685 35.2635 29.9207 35.4295 29.8493 35.5881C29.7122 35.8919 29.5129 36.1399 29.2099 36.2921C29.1281 36.333 29.0412 36.3647 28.9576 36.2846C28.8758 36.2062 28.881 36.1249 28.9818 36.0712C29.4328 35.8297 29.6373 35.4169 29.76 34.9487C29.7784 34.8778 29.8084 34.8034 29.7796 34.7261C29.8159 34.635 29.7905 34.5411 29.7923 34.4482C29.7946 34.2995 29.7427 34.2199 29.5814 34.1825C29.3966 34.1392 29.2906 33.968 29.3044 33.8181C29.3228 33.6209 29.4444 33.4831 29.6414 33.4376C29.8113 33.3978 29.9731 33.4064 30.1217 33.5102C30.351 33.6699 30.3354 34.0337 30.0895 34.1686C30.0399 34.1957 30.0279 34.2217 30.0342 34.2793C30.0601 34.4949 30.0722 34.7117 30.0342 34.9285C30.0273 34.966 30.029 35.0046 30.0267 35.0432C30.0106 35.0571 30.029 35.0819 30.0106 35.0951Z" fill="#3D8709"/>
<path d="M27.7261 35.5379C27.6818 35.7847 27.8448 35.9381 27.983 36.0995C28.0999 36.2361 28.2428 36.3468 28.3828 36.4593C28.4283 36.4956 28.4743 36.5354 28.5095 36.5815C28.5659 36.6559 28.5314 36.7187 28.4381 36.7256C28.3603 36.7314 28.2941 36.6962 28.2295 36.6634C27.8718 36.4812 27.6075 36.2044 27.4174 35.8533C27.4001 35.821 27.392 35.7772 27.3396 35.7841C27.3725 35.7611 27.3592 35.7363 27.3454 35.7086C27.2809 35.5789 27.2325 35.4434 27.2008 35.3021C27.1893 35.2508 27.1668 35.2376 27.1179 35.2347C26.9168 35.2214 26.7676 35.0957 26.7291 34.8991C26.6945 34.7221 26.8005 34.6057 26.9209 34.499C27.1086 34.3329 27.5867 34.4425 27.5942 34.7705C27.5971 34.8807 27.5741 34.981 27.5003 35.0634C27.4658 35.1021 27.464 35.1344 27.4767 35.1822C27.5239 35.3655 27.5982 35.5362 27.7019 35.7017C27.7221 35.6452 27.6916 35.5864 27.7261 35.5379Z" fill="#3D8709"/>
<path d="M28.5406 33.9293C28.4507 33.8867 28.3545 33.8873 28.2577 33.889C28.1898 33.6826 28.1512 33.4693 28.1172 33.2554C28.0803 33.0242 28.0458 32.793 28.0147 32.5612C28.0037 32.4799 27.998 32.3969 27.9962 32.3162C27.9911 32.0014 27.9565 31.6889 27.953 31.3741C27.9513 31.2368 27.9317 31.0979 27.9421 30.9607C27.9559 30.7768 27.949 30.5911 27.9922 30.4095C27.9968 30.3893 27.9962 30.3616 28.0193 30.3599C28.0579 30.3565 28.0441 30.3922 28.0464 30.4118C28.0705 30.5917 28.0947 30.771 28.1161 30.9515C28.1402 31.1579 28.165 31.3643 28.1823 31.5712C28.1938 31.7085 28.2088 31.8457 28.2192 31.9823C28.2376 32.2251 28.2791 32.4643 28.3125 32.7048C28.3655 33.0876 28.4346 33.4681 28.5233 33.844C28.5308 33.8717 28.5354 33.9005 28.5406 33.9293Z" fill="#3D8709"/>
<path d="M29.1051 32.0809C29.0941 32.2447 29.1131 32.4914 29.1275 32.7382C29.1408 32.9665 29.1782 33.1931 29.1782 33.4226C29.1782 33.4404 29.1782 33.4577 29.1776 33.4756C29.1776 33.4975 29.1742 33.52 29.1523 33.5275C29.1218 33.5373 29.1126 33.5102 29.1022 33.4894C29.0475 33.3839 29.0216 33.2692 28.9956 33.1545C28.9311 32.8673 28.8827 32.5767 28.8977 32.2821C28.9179 31.8693 28.93 31.4554 29.0014 31.0472C29.0048 31.0264 29.0031 30.9987 29.0279 30.9987C29.0532 30.9987 29.0515 31.0264 29.055 31.0472C29.1062 31.362 29.112 31.6791 29.1051 32.0809Z" fill="#3D8709"/>
<path d="M28.3434 34.5749C28.4507 34.5216 28.5518 34.4612 28.6082 34.3546C28.7101 34.4374 28.6846 34.567 28.7417 34.667C28.7579 34.6951 28.7564 34.7311 28.7703 34.7606C28.8189 34.8657 28.8451 34.9708 28.7934 35.0817C28.7849 35.109 28.7764 35.1364 28.7672 35.1637C28.7533 35.2084 28.734 35.2112 28.6954 35.1796C28.6437 35.1371 28.5866 35.1004 28.5318 35.0615C28.4152 34.9175 28.3481 34.757 28.3434 34.5749Z" fill="#3D8709"/>
<path d="M30.0105 35.0951C30.0099 35.0761 30.007 35.0559 30.026 35.0427C30.0324 35.0715 30.0519 35.098 30.045 35.1303C30.0335 35.1182 30.022 35.1067 30.0105 35.0951Z" fill="#3D8709"/>
<path d="M26.9692 36.1422C26.9496 36.2004 26.9295 36.2592 26.9099 36.3174C26.8575 36.3722 26.786 36.3659 26.7221 36.367C26.4479 36.3716 26.1738 36.378 25.9002 36.367C25.5315 36.352 25.1623 36.3301 24.7948 36.2955C24.3582 36.2546 23.9245 36.19 23.4902 36.126C23.0731 36.0649 22.655 36.0147 22.246 35.9092C22.2034 35.8983 22.1613 35.885 22.1193 35.8718C22.1054 35.8671 22.0899 35.8602 22.0962 35.8412C22.1014 35.8251 22.117 35.821 22.1325 35.8233C22.4436 35.8631 22.7575 35.8596 23.0703 35.8862C23.3588 35.911 23.6474 35.9415 23.9383 35.9484C24.2246 35.9548 24.5103 35.9905 24.796 36.013C24.8893 36.0205 24.9832 36.0245 25.0765 36.0297C25.4163 36.0476 25.755 36.0787 26.0954 36.0897C26.365 36.0983 26.6346 36.1226 26.9047 36.122C26.9289 36.122 26.9531 36.1197 26.9692 36.1422Z" fill="#87C12F"/>
<path d="M22.4862 36.706C22.6492 36.706 22.8116 36.7054 22.9746 36.706C23.3444 36.7078 23.7113 36.762 24.08 36.7729C24.3732 36.7816 24.6681 36.7937 24.9618 36.7625C25.0811 36.7498 25.202 36.7556 25.3218 36.7441C25.5257 36.7239 25.7291 36.7037 25.9324 36.6778C25.9992 36.6691 26.0672 36.6726 26.1352 36.6714C26.1565 36.6714 26.1778 36.6778 26.1812 36.7031C26.1841 36.7245 26.1668 36.7331 26.1519 36.7423C26.0344 36.8156 25.9001 36.8386 25.7682 36.8634C25.4111 36.9309 25.0523 36.9759 24.6882 36.9931C24.3495 37.0093 24.0172 36.977 23.682 36.9395C23.3214 36.8992 22.9625 36.8502 22.6066 36.7769C22.5616 36.7677 22.5156 36.7631 22.4862 36.706Z" fill="#87C12F"/>
<path d="M27.1448 35.9104C27.1166 35.9404 27.0884 35.9704 27.0607 36.0003C26.8182 35.9859 26.5901 35.9058 26.3586 35.8435C25.7895 35.6896 25.2244 35.5218 24.649 35.3898C24.3812 35.3281 24.1162 35.252 23.842 35.1909C23.8645 35.1407 23.9077 35.1482 23.9457 35.1476C24.202 35.1465 24.4537 35.1897 24.7037 35.2381C25.0948 35.3131 25.4871 35.3834 25.8724 35.4855C26.2843 35.5944 26.6909 35.7207 27.0907 35.8706C27.1131 35.8793 27.1345 35.8862 27.1448 35.9104Z" fill="#87C12F"/>
<path d="M28.4525 34.9683C28.4652 35.2652 28.5429 35.5472 28.6409 35.8262C28.7319 36.0857 28.8442 36.3347 28.9732 36.5763C28.9888 36.6057 29.0199 36.6397 28.9853 36.672C28.9513 36.7037 28.9093 36.6945 28.8707 36.6726C28.8131 36.6397 28.7676 36.5942 28.7273 36.5429C28.464 36.2085 28.3235 35.8222 28.2578 35.4059C28.2359 35.2669 28.2221 35.1263 28.2048 34.9867C28.1945 34.8818 28.1835 34.7769 28.1749 34.6714C28.172 34.6374 28.1553 34.6235 28.1248 34.6091C27.9468 34.5267 27.8846 34.4171 27.9047 34.232C27.9214 34.0769 28.0384 33.9478 28.1991 33.9057C28.2192 33.9005 28.2388 33.8942 28.2584 33.8884C28.3604 33.8469 28.4565 33.8475 28.5412 33.9288C28.7382 34.0781 28.7515 34.228 28.6512 34.4396C28.6564 34.5105 28.6011 34.5405 28.5573 34.578C28.528 34.6028 28.49 34.6143 28.46 34.6379C28.4329 34.6691 28.4479 34.7037 28.4514 34.7371C28.4588 34.8144 28.4686 34.8916 28.4525 34.9683Z" fill="#3D8709"/>
<path d="M46.2299 62.7427C46.1084 62.7061 45.9774 62.7191 45.8655 62.7789C45.7537 62.8388 45.6702 62.9405 45.6335 63.0618C45.6132 63.1281 45.6078 63.1981 45.6174 63.2668C43.6533 63.9263 41.6391 64.6822 39.9035 65.8017C39.816 65.8587 39.8892 66.0067 39.9785 65.9496C41.7069 64.8337 43.7122 64.0796 45.671 63.4236C45.7006 63.4796 45.7411 63.5291 45.7902 63.5692C45.8393 63.6094 45.8959 63.6392 45.9567 63.6572C46.0784 63.6938 46.2097 63.6809 46.3218 63.621C46.434 63.5612 46.5178 63.4595 46.5549 63.3381C46.5729 63.2777 46.5788 63.2143 46.5723 63.1516C46.5657 63.0889 46.5467 63.0282 46.5165 62.9728C46.4863 62.9175 46.4454 62.8687 46.3962 62.8292C46.347 62.7897 46.2905 62.7603 46.2299 62.7427Z" fill="#87C12F"/>
<path d="M47.2887 69.0532C47.2081 68.9554 47.092 68.8935 46.9658 68.8811C46.8396 68.8688 46.7136 68.9069 46.6155 68.9873C46.5614 69.031 46.5181 69.0865 46.4887 69.1495C44.4853 68.604 42.3925 68.1156 40.3248 68.0799C40.2177 68.0799 40.198 68.2421 40.3034 68.2439C42.3622 68.276 44.4496 68.7627 46.4423 69.3135C46.4355 69.3769 46.4413 69.441 46.4594 69.5022C46.4775 69.5634 46.5075 69.6204 46.5477 69.67C46.6285 69.7679 46.745 69.8299 46.8715 69.8422C46.998 69.8546 47.1243 69.8164 47.2226 69.736C47.2729 69.6962 47.3146 69.6467 47.3453 69.5905C47.376 69.5342 47.395 69.4724 47.4012 69.4086C47.4073 69.3449 47.4006 69.2805 47.3812 69.2195C47.3619 69.1584 47.3304 69.1019 47.2887 69.0532Z" fill="#87C12F"/>
<path d="M41.0998 58.0686C40.9916 58.1356 40.9146 58.2427 40.8854 58.3663C40.8563 58.49 40.8775 58.6201 40.9444 58.7282C40.9808 58.7874 41.0303 58.8374 41.0891 58.8744C40.282 60.7854 39.5177 62.7962 39.2088 64.832C39.1945 64.9371 39.3534 64.9799 39.3695 64.8747C39.6766 62.8425 40.4409 60.8406 41.239 58.9403C41.2994 58.9548 41.362 58.9572 41.4233 58.9474C41.4846 58.9376 41.5433 58.9158 41.5962 58.8833C41.65 58.8506 41.6968 58.8076 41.7338 58.7568C41.7709 58.7059 41.7975 58.6483 41.8121 58.5871C41.8267 58.5259 41.829 58.4625 41.8189 58.4004C41.8089 58.3383 41.7865 58.2789 41.7533 58.2255C41.6869 58.1188 41.5811 58.0426 41.4588 58.0132C41.3365 57.9839 41.2075 58.0038 41.0998 58.0686Z" fill="#87C12F"/>
<path d="M35.0948 58.5677C35.0494 58.6862 35.0528 58.8178 35.1044 58.9337C35.1559 59.0497 35.2513 59.1405 35.3698 59.1863C35.4353 59.2111 35.5053 59.2215 35.5752 59.2166C36.0841 61.2257 36.6876 63.2846 37.6768 65.0993C37.7268 65.192 37.8786 65.1296 37.8286 65.0369C36.8447 63.2311 36.2412 61.1775 35.7341 59.1792C35.8509 59.1276 35.9426 59.0322 35.9894 58.9136C36.0355 58.7951 36.0326 58.6633 35.9814 58.547C35.9302 58.4306 35.8348 58.3394 35.7162 58.2932C35.5973 58.2478 35.4653 58.2512 35.3488 58.3026C35.2324 58.354 35.1411 58.4493 35.0948 58.5677Z" fill="#87C12F"/>
<path d="M44.5264 61.4716C44.3993 61.4745 44.2785 61.5275 44.1905 61.619C44.1025 61.7106 44.0544 61.8332 44.0568 61.9601C44.0594 62.0294 44.0764 62.0974 44.1068 62.1598C42.439 63.3916 40.7588 64.7303 39.4517 66.3311C39.3856 66.4131 39.4999 66.5308 39.5678 66.4488C40.8677 64.8551 42.5426 63.5199 44.2103 62.2917C44.2552 62.3364 44.3088 62.3716 44.3677 62.3949C44.4267 62.4182 44.4898 62.4291 44.5532 62.4272C44.6161 62.4262 44.6782 62.4129 44.7359 62.3879C44.7937 62.3629 44.8459 62.3267 44.8895 62.2814C44.9332 62.2362 44.9674 62.1828 44.9903 62.1243C45.0132 62.0658 45.0242 62.0033 45.0228 61.9405C45.0217 61.877 45.0078 61.8143 44.9822 61.7562C44.9565 61.6981 44.9194 61.6457 44.8732 61.602C44.827 61.5584 44.7725 61.5244 44.713 61.502C44.6534 61.4796 44.59 61.4693 44.5264 61.4716Z" fill="#87C12F"/>
<path d="M47.4851 67.1494C47.4322 67.1153 47.373 67.092 47.311 67.0808C47.249 67.0697 47.1854 67.0708 47.1238 67.0842C47.0623 67.0976 47.004 67.1231 46.9523 67.159C46.9006 67.195 46.8566 67.2408 46.8226 67.2938C46.7854 67.352 46.7616 67.4178 46.753 67.4863C44.6799 67.5844 42.5372 67.7644 40.5587 68.3776C40.4587 68.4079 40.4891 68.5701 40.5909 68.538C42.555 67.9355 44.6978 67.7555 46.7584 67.6574C46.7713 67.7193 46.7964 67.7779 46.8323 67.8299C46.8682 67.882 46.9141 67.9263 46.9673 67.9605C47.0742 68.029 47.2039 68.0524 47.328 68.0257C47.4521 67.999 47.5606 67.9242 47.6297 67.8179C47.665 67.7647 47.6892 67.7051 47.7011 67.6425C47.7129 67.5798 47.712 67.5155 47.6985 67.4532C47.685 67.3909 47.6592 67.3319 47.6226 67.2798C47.5859 67.2276 47.5392 67.1833 47.4851 67.1494Z" fill="#87C12F"/>
<path d="M38.2035 58.607C38.1628 58.6548 38.1319 58.7102 38.1126 58.77C38.0934 58.8298 38.0861 58.8928 38.0912 58.9553C38.0964 59.0179 38.1138 59.0789 38.1426 59.1347C38.1713 59.1906 38.2108 59.2402 38.2588 59.2808C38.3109 59.3251 38.3718 59.3579 38.4374 59.3771C38.2588 61.4414 38.1535 63.5841 38.491 65.6163C38.5088 65.7215 38.6695 65.7125 38.6552 65.6163C38.3195 63.5894 38.4249 61.4521 38.6017 59.3967C38.6649 59.3921 38.7265 59.3749 38.783 59.3462C38.8394 59.3174 38.8895 59.2776 38.9302 59.2291C38.9709 59.1813 39.0018 59.1259 39.0211 59.0661C39.0403 59.0063 39.0476 58.9433 39.0425 58.8807C39.0373 58.8182 39.0199 58.7572 38.9911 58.7013C38.9624 58.6455 38.9229 58.5959 38.8749 58.5553C38.7787 58.4739 38.6542 58.4336 38.5285 58.4433C38.4028 58.4529 38.286 58.5118 38.2035 58.607Z" fill="#87C12F"/>
<path d="M32.6449 60.9297C32.6381 61.0567 32.682 61.1811 32.7671 61.2757C32.8521 61.3703 32.9713 61.4273 33.0985 61.4342C33.1679 61.4375 33.2373 61.426 33.302 61.4004C34.4073 63.1545 35.6233 64.9264 37.1197 66.349C37.1964 66.4203 37.3214 66.3151 37.2446 66.242C35.7501 64.8266 34.543 63.06 33.4413 61.3148C33.4888 61.273 33.5275 61.2221 33.5551 61.1652C33.5827 61.1083 33.5986 61.0464 33.602 60.9832C33.6093 60.8568 33.566 60.7326 33.4816 60.638C33.3973 60.5434 33.2787 60.4861 33.152 60.4788C33.0249 60.4715 32.9 60.5148 32.8049 60.5994C32.7098 60.684 32.6523 60.8028 32.6449 60.9297Z" fill="#87C12F"/>
<path d="M37.0696 68.6129C37.0696 68.6129 34.2716 67.6895 33.1734 66.3971C32.0753 65.1047 31.5985 62.9334 32.4003 62.8176C33.202 62.7017 36.7 63.6465 37.0696 68.6129Z" fill="#87C12F"/>
<path d="M34.027 65.9158L36.9732 68.6913C37.0732 68.7858 37.2696 68.6806 37.1857 68.5487L34.9501 65.0245C34.8608 64.8854 34.6287 64.9995 34.718 65.1403L36.9643 68.6646L37.1768 68.522L34.2287 65.7446C34.1091 65.6306 33.9145 65.7999 34.0359 65.9229L34.027 65.9158Z" fill="#3D8709"/>
<path d="M37.2447 68.5933C37.2447 68.5933 35.1287 65.6698 34.968 63.6019C34.8073 61.5341 35.8948 59.033 36.7733 59.493C37.6518 59.9529 40.4427 63.4023 37.2447 68.5933Z" fill="#3D8709"/>
<path d="M36.1572 63.7391C36.4667 65.3613 36.7768 66.9841 37.0875 68.6075C37.1179 68.7715 37.3893 68.8108 37.4018 68.6182C37.5018 66.9152 37.603 65.2122 37.7053 63.5092C37.7178 63.3078 37.4036 63.2561 37.3929 63.4593L37.0875 68.5665L37.4018 68.5772C37.0923 66.955 36.7828 65.3322 36.4733 63.7088C36.434 63.5092 36.1161 63.5306 36.1572 63.7391Z" fill="#87C12F"/>
<path d="M37.9 69.0176C37.9 69.0176 40.2213 70.8252 41.9122 71.0159C43.6032 71.2066 45.662 70.3938 45.3228 69.6647C44.9835 68.9356 42.2337 66.5647 37.9 69.0176Z" fill="#87C12F"/>
<path d="M41.8337 70.039L37.8822 69.1477C37.75 69.1174 37.7268 68.8946 37.8822 68.891L42.0641 68.7912C42.2301 68.7912 42.264 69.0443 42.0962 69.0479L37.9143 69.1477V68.891L41.8658 69.7823C42.0266 69.8198 41.9944 70.0764 41.8319 70.039H41.8337Z" fill="#3D8709"/>
<path d="M37.8071 68.8643C37.8071 68.8643 41.4176 68.9926 43.2283 67.9729C45.0389 66.9533 46.5138 64.6626 45.6442 64.1884C44.7746 63.7142 40.3552 63.3238 37.8071 68.8643Z" fill="#3D8709"/>
<path d="M42.4586 67.0656L37.8893 69.0051C37.7357 69.0693 37.5518 68.8661 37.7107 68.7502L41.7926 65.6537C41.9551 65.5325 42.1729 65.7625 42.0104 65.8855L37.9285 68.9801C37.866 68.8964 37.8053 68.8019 37.75 68.7252L42.3194 66.7875C42.4979 66.7073 42.6586 66.9871 42.4693 67.0656H42.4586Z" fill="#87C12F"/>
<path d="M37.6036 68.9124C37.6036 68.9124 37.0501 65.3008 37.8625 63.3613C38.675 61.4218 40.8124 59.6694 41.3927 60.4894C41.973 61.3094 42.889 65.7072 37.6036 68.9124Z" fill="#87C12F"/>
<path d="M38.8785 64.0351L37.4643 68.8482C37.4161 69.0104 37.6428 69.1709 37.7428 69.0033L40.3802 64.5467C40.4855 64.3684 40.2266 64.1777 40.1213 64.356C39.2428 65.8451 38.3636 67.3336 37.4839 68.8215L37.7625 68.9748L39.1767 64.1617C39.2356 63.9656 38.9374 63.8444 38.8785 64.044V64.0351Z" fill="#3D8709"/>
<path d="M36.6072 68.128C36.393 68.2831 35.5662 72.1479 36.1519 72.3796C36.7376 72.6114 39.0803 69.137 39.0803 69.137C39.0803 69.137 37.8875 67.2118 36.6072 68.128Z" fill="#87C12F"/>
</svg>
