<svg width="583" height="584" viewBox="0 0 583 584" fill="none" xmlns="http://www.w3.org/2000/svg">
<path d="M145.064 171.872C141.821 163.565 148.691 150.529 148.691 150.529C150.689 155.491 154.47 159.526 159.291 161.845C155.157 149.834 172.063 121.415 172.063 121.415C172.455 127.339 188.574 145.757 188.574 145.757C198.278 119.34 212.71 119.331 212.71 119.331C214.379 121.641 215.594 124.247 216.293 127.01C219.969 118.822 236.383 116.854 236.383 116.854C239.826 107.646 270.28 89.9462 270.28 89.9462C260.27 102.934 250.695 140.059 250.695 140.059C252.383 138.912 254.296 138.139 256.307 137.792C252.199 146.179 256.92 166.303 256.92 166.303C259.155 154.926 301.415 131.22 301.415 131.22C298.379 144.812 297.722 158.826 299.475 172.642C300.037 168.506 313.21 159.776 313.21 159.776C311.832 162.819 316.586 168.886 316.586 168.886C317.293 161.932 339.823 150.418 339.823 150.418C338.461 157.115 338.599 164.03 340.226 170.667C350.669 165.067 361.525 160.276 372.7 156.335C367.468 159.999 368.314 171.583 368.314 171.583C376.295 169.432 384.539 168.41 392.804 168.546C402.564 169.716 434.791 156.441 434.791 156.441C434.791 156.441 419.7 188.008 420.025 197.604C419.622 205.86 418.064 214.019 415.398 221.844C415.398 221.844 427.066 223.289 430.899 218.461C426.238 229.355 420.749 239.876 414.48 249.931C420.997 251.988 427.888 252.576 434.66 251.654C434.66 251.654 421.701 273.385 414.716 273.637C414.716 273.637 420.357 278.667 423.587 277.601C423.587 277.601 414.016 290.176 409.853 290.467C423.524 293.117 437.552 293.376 451.312 291.232C451.312 291.232 424.901 331.856 413.403 333.345C413.403 333.345 433.176 339.368 441.813 335.815C441.336 337.799 440.44 339.658 439.185 341.268C439.185 341.268 476.856 334.134 490.468 324.992C490.468 324.992 470.563 353.953 461.357 357.008C461.357 357.008 458.374 373.313 449.964 376.447C452.675 377.325 455.196 378.708 457.393 380.523C457.393 380.523 456.443 394.924 429.397 402.83C429.397 402.83 446.777 420.171 452.663 420.948C452.663 420.948 423.201 435.965 411.486 431.057C413.485 436.019 417.265 440.054 422.086 442.372C422.086 442.372 408.63 448.378 400.552 444.6C400.552 444.6 416.967 462.122 416.927 468.245C416.927 468.245 400.513 470.213 394.4 465.008C391.394 462.461 376.014 471.918 370.178 468C372.213 472.259 374.948 476.146 378.269 479.501C378.269 479.501 370.857 484.691 356.73 476.988C356.73 476.988 343.206 496.465 334.966 494.386C334.966 494.386 334.434 496.019 338.355 499.875C338.355 499.875 326.732 503.543 319.582 499.103C319.582 499.103 324.727 504.596 327.403 507.453C327.403 507.453 309.425 508.411 302.285 503.652C302.285 503.652 302.153 507.695 304.294 508.99C300.699 509.081 297.183 507.932 294.335 505.736C294.335 505.736 296.257 521.882 294.183 525.062C285.199 522.878 276.783 518.81 269.49 513.128C269.399 515.119 269.658 517.11 270.256 519.011C264.922 517.064 260.432 513.321 257.555 508.426C258.002 512.798 258.019 517.205 257.605 521.581C250.743 519.774 244.699 515.691 240.463 509.999C237.645 509.669 234.953 508.648 232.625 507.028C232.262 509.033 232.51 511.1 233.336 512.962C228.518 510.098 224.611 505.927 222.067 500.932C222.067 500.932 204.922 489.457 203.538 482.915C203.538 482.915 192.761 491.67 179.004 430.3C176.634 419.732 175.815 417.095 173.216 402.1C158.254 398.79 155.728 397.855 145.505 394.54C85.1622 376.811 94.55 366.573 94.55 366.573C88.1636 364.821 77.8307 346.964 77.8307 346.964C73.029 344.12 69.1377 339.966 66.6129 334.989C68.4174 335.877 70.4358 336.238 72.4365 336.031C70.9715 333.602 70.1285 330.849 69.9825 328.016C64.5887 323.41 60.9101 317.116 59.5432 310.155C63.9371 310.027 68.3329 310.331 72.6673 311.062C67.9696 307.872 64.5279 303.148 62.9326 297.698C64.7905 298.419 66.7606 298.807 68.7531 298.846C63.5583 291.199 60.0478 282.535 58.4541 273.428C61.7635 271.565 77.7492 274.536 77.7492 274.536C75.7436 271.551 74.8264 267.967 75.152 264.386C76.3043 266.607 80.347 266.739 80.347 266.739C76.0636 259.304 78.1927 241.426 78.1927 241.426C80.9199 244.338 85.9629 249.721 85.9629 249.721C82.05 242.351 86.4686 230.992 86.4686 230.992C90.2251 235.002 91.7251 234.731 91.7251 234.731C90.1877 226.374 110.504 214.148 110.504 214.148C103.894 199.714 109.35 192.436 109.35 192.436C112.494 195.991 116.212 198.992 120.35 201.315C116.872 195.291 127.261 180.505 124.915 177.34C120.12 170.9 123.154 154.65 123.154 154.65C128.378 154.5 145.064 171.872 145.064 171.872Z" fill="#169E3B"/>
<path d="M422.164 167.958C422.164 167.958 336.705 245.747 251.403 323.595C229.998 343.027 208.7 362.463 188.665 380.716C178.832 389.928 168.858 398.55 160.043 407.529C151.229 416.508 142.92 424.704 135.52 432.771C123.233 445.617 112.087 459.509 102.21 474.289C99.3047 478.756 96.8317 483.49 94.8247 488.427C94.1787 490.269 93.7043 491.745 93.4568 492.802L93.0854 494.388L105.526 496.657C105.526 496.657 105.674 495.383 106.671 492.593C108.252 488.384 110.221 484.33 112.552 480.484C121.699 466.055 132.05 452.425 143.493 439.74C150.574 431.664 158.636 422.873 167.014 414.199C175.393 405.526 184.955 396.464 194.745 386.985C214.264 368.183 235.048 348.198 255.835 328.106C338.866 248.054 422.164 167.958 422.164 167.958Z" fill="#386845"/>
<path d="M293.617 291.473C293.617 291.473 293.676 289.665 293.935 286.638C294.193 283.61 294.494 279.307 295.145 274.056C295.796 268.805 296.739 262.765 297.644 256.244L299.729 246.247C300.53 242.918 301.019 239.366 302.033 236.044L304.92 225.913C305.711 222.609 306.742 219.368 308.006 216.215L311.281 207.269C312.118 204.611 313.128 202.011 314.305 199.486L322.12 183.605C322.12 183.605 318.668 189.829 313.413 199.084C312.009 201.581 310.785 204.175 309.75 206.846L305.947 215.669C304.504 218.789 303.278 222.005 302.278 225.295L298.862 235.302C297.58 238.668 296.933 242.162 295.916 245.59C294.898 249.018 294.152 252.296 293.248 255.515C291.969 262.077 290.593 268.316 289.516 273.553C288.44 278.79 288.139 283.094 287.551 286.43C286.962 289.766 287.017 291.365 287.017 291.365L293.617 291.473Z" fill="#386845"/>
<path d="M229.717 351.645C229.717 351.645 231.714 337.811 235.639 317.117C237.627 306.797 240.096 294.789 243.071 281.998C246.045 269.208 249.26 255.573 253.216 242.069C254.984 235.257 257.173 228.565 259.146 221.973C261.119 215.38 263.51 209.014 265.579 202.745C267.648 196.475 270.235 190.648 272.39 185.02C274.544 179.392 277.107 174.31 279.182 169.478C281.257 164.646 283.788 160.522 285.726 156.644C287.408 153.362 289.291 150.187 291.362 147.135C294.673 141.971 296.527 138.996 296.527 138.996C296.527 138.996 294.515 141.913 291.101 146.967C288.91 149.971 286.938 153.128 285.2 156.414C283.16 160.182 280.526 164.196 278.344 169.025C276.163 173.853 273.336 178.873 271.024 184.443C268.711 190.012 266.018 195.836 263.792 202.047C261.565 208.259 258.909 214.563 256.723 221.148C254.537 227.734 252.19 234.367 250.211 241.172C245.939 254.56 242.246 268.125 238.898 280.957C235.549 293.789 232.709 305.732 230.508 316.044C225.948 336.611 223.522 350.538 223.522 350.538L229.717 351.645Z" fill="#386845"/>
<path d="M186.052 392.24C186.052 392.24 186.774 373.412 189.509 345.17C190.874 331.102 192.796 314.656 195.234 297.109C196.586 288.312 197.682 279.242 199.419 270.086C201.156 260.929 202.688 251.553 204.476 242.452L207.379 228.594L210.804 215.072C212.747 206.136 215.486 197.278 218.002 188.733C220.518 180.188 223.277 172.343 226.147 164.395L228.143 158.709L230.394 153.404C231.895 149.831 233.39 146.472 234.774 143.215C237.368 137.309 240.258 131.538 243.434 125.923C244.85 123.36 246.151 121.006 247.178 118.909C248.206 116.813 249.915 115.005 251.141 113.341L258.573 102.666C258.573 102.666 255.84 106.464 250.881 113.172L246.866 118.686C245.623 120.882 244.321 123.236 243.019 125.59C239.662 131.134 236.63 136.867 233.937 142.762L229.347 152.837L226.936 158.19L224.781 163.818C221.861 171.711 218.94 179.604 216.379 187.882C213.819 196.159 210.863 205.116 208.597 214.148C207.384 218.689 206.17 223.229 205.008 227.824L201.786 241.672C199.568 250.866 197.824 260.235 195.98 269.388C194.137 278.54 192.609 287.81 191.208 296.445C188.4 313.927 186.103 330.414 184.632 344.479C181.311 372.755 180.105 391.727 180.105 391.727L186.052 392.24Z" fill="#386845"/>
<path d="M189.394 351.876C189.394 351.876 183.917 341.846 176.442 326.159C172.705 318.315 168.477 309.178 164.17 299.185C159.864 289.193 155.307 278.713 151.729 267.627C149.669 262.234 147.825 256.742 146.083 251.36C144.342 245.978 142.817 240.496 141.285 235.228C139.754 229.959 138.695 224.865 137.465 220.139C136.235 215.413 135.698 210.655 134.88 206.368C134.062 202.081 133.926 198.083 133.454 194.606C133.092 191.581 132.96 188.532 133.06 185.487L133.053 177.552L132.741 185.477C132.591 188.531 132.633 191.591 132.867 194.64C133.233 198.114 133.152 202.212 133.754 206.598C134.356 210.985 134.999 215.745 135.91 220.461C136.821 225.177 137.763 230.586 139.188 235.852C140.614 241.117 141.764 246.64 143.656 252.293C145.548 257.946 146.809 263.366 148.815 268.81C158.643 298.3 170.403 327.111 184.018 355.056L189.394 351.876Z" fill="#386845"/>
<path d="M175.588 399.568C175.588 399.568 169.016 390.46 160.222 376.008C155.88 368.731 150.832 360.259 145.866 350.884C140.901 341.51 135.798 331.438 131.073 321.219C128.9 316.036 126.568 310.795 124.552 305.67C122.536 300.545 120.414 295.417 118.82 290.412C117.227 285.408 115.413 280.609 114.183 275.883C112.953 271.156 111.606 266.746 110.674 262.668L108.383 251.304C107.588 247.923 107.422 244.882 106.918 242.362L105.947 234.609L106.65 242.407C106.944 244.813 107.056 247.905 107.638 251.279L109.607 262.74C110.429 266.92 111.511 271.269 112.683 276.153C113.855 281.037 115.404 285.774 116.833 290.933C118.262 296.092 120.277 301.217 122.125 306.603C123.973 311.988 126.201 317.12 128.21 322.457C132.609 332.879 137.331 343.204 142.022 352.836C146.713 362.468 151.486 371.197 155.773 378.526C164.127 393.39 170.524 402.971 170.524 402.971L175.588 399.568Z" fill="#386845"/>
<path d="M198.834 268.469C198.834 268.469 195.645 261.761 191.569 251.244C186.565 238.472 182.403 225.386 179.111 212.069C178.217 208.472 177.538 204.776 176.806 201.131C176.073 197.486 175.71 193.906 175.183 190.48C174.656 187.055 174.503 183.589 174.182 180.383C173.861 177.177 174.175 174.099 174.159 171.329C174.143 168.559 174.6 165.965 174.728 163.679C174.879 161.728 175.21 159.796 175.716 157.906L176.84 152.831L175.558 157.848C175.042 159.76 174.659 161.704 174.409 163.668C174.23 165.899 173.772 168.494 173.627 171.311C173.481 174.129 173.435 177.163 173.489 180.413C173.542 183.664 173.75 187.079 173.91 190.332C174.07 193.586 174.635 197.492 175.368 201.137C176.101 204.782 176.511 208.523 177.401 212.227C181.766 231.867 187.912 251.069 195.762 269.594L198.834 268.469Z" fill="#386845"/>
<path d="M137.433 336.817C137.433 336.817 136.111 336.508 133.953 335.745C132.605 335.312 131.288 334.789 130.01 334.179C128.301 333.465 126.638 332.646 125.031 331.727L119.226 328.502L112.926 324.09C110.773 322.712 108.706 321.204 106.737 319.574L100.355 314.414C96.0494 310.918 92.2414 306.854 88.4161 303.321C86.5939 301.593 84.8756 299.759 83.2703 297.828L78.6391 292.884L69.1709 282.777L78.1445 293.348L82.7757 298.291C84.3709 299.994 86.1205 301.862 87.9215 303.784C91.4721 307.574 95.2801 311.639 99.4725 315.344L105.737 320.82C107.747 322.611 109.862 324.28 112.071 325.819L118.205 330.386L124.056 333.878C125.683 334.916 127.378 335.844 129.131 336.653C130.706 337.343 132.013 338.078 133.225 338.49C134.455 338.989 135.724 339.387 137.02 339.679L137.433 336.817Z" fill="#386845"/>
<path d="M167.435 393.178C167.28 393.411 167.073 393.605 166.83 393.744C165.717 394.042 164.561 394.149 163.412 394.059C161.439 393.896 159.5 393.457 157.65 392.753C155.101 391.792 152.613 390.679 150.197 389.421C147.688 387.955 144.806 386.53 142.048 384.576C139.062 382.682 136.179 380.633 133.408 378.437C127.205 373.805 121.252 368.847 115.574 363.584C109.567 358.382 103.999 352.769 98.6299 347.588C93.2609 342.407 88.527 337.354 84.4618 333.014L70.9283 318.568L83.9675 333.477L97.9126 348.363C103.058 353.856 108.204 359.349 114.472 364.719C120.071 370.178 125.945 375.346 132.072 380.204C134.978 382.535 138.097 384.873 140.756 386.611C143.414 388.474 146.166 390.199 149.001 391.779C151.41 393.051 153.9 394.164 156.455 395.11C158.514 395.951 160.685 396.488 162.899 396.705C164.417 396.933 165.968 396.82 167.437 396.373C167.933 396.251 168.407 396.051 168.841 395.78C168.962 395.689 169.072 395.585 169.171 395.471L167.435 393.178Z" fill="#386845"/>
<path d="M290.692 294.626C290.692 294.626 292.449 294.63 295.6 294.36C298.751 294.09 303.285 293.865 308.578 293.239C313.87 292.612 320.076 291.749 326.872 290.746L336.949 288.731C340.437 287.939 343.965 287.522 347.408 286.462L357.617 283.706C360.964 282.922 364.253 281.909 367.461 280.672L376.513 277.452C379.246 276.594 381.914 275.542 384.497 274.304C394.075 269.663 400.512 266.625 400.512 266.625C400.512 266.625 393.928 269.286 384.155 273.387C381.558 274.397 378.898 275.235 376.191 275.897L367.05 278.582C363.821 279.637 360.52 280.455 357.172 281.029C353.791 281.824 350.307 282.509 346.874 283.25C343.442 283.99 339.917 284.301 336.543 284.884L326.431 286.311C319.865 286.79 313.924 287.715 308.494 287.644C303.064 287.574 298.729 288.232 295.86 288.032C292.991 287.832 291.014 288.034 291.014 288.034L290.692 294.626Z" fill="#386845"/>
<path d="M227.12 354.49C227.12 354.49 241.175 352.977 261.996 349.768C272.485 348.192 284.643 346.086 297.556 343.684C310.468 341.282 324.356 338.379 338.045 335.044C344.913 333.457 351.686 331.548 358.4 329.796C365.114 328.044 371.574 325.912 377.921 323.988C384.268 322.065 390.199 319.809 395.702 317.645C401.205 315.481 406.601 313.313 411.565 311.345C416.528 309.376 420.703 307.116 424.596 305.326C427.971 303.772 431.248 302.011 434.407 300.054C439.673 296.977 442.715 295.159 442.715 295.159C442.715 295.159 439.625 296.815 434.256 299.783C431.073 301.662 427.763 303.315 424.349 304.732C420.405 306.467 416.124 308.724 411.167 310.48C406.21 312.235 400.972 314.461 395.215 316.244C389.459 318.027 383.424 320.174 377.084 321.884C370.744 323.595 364.185 325.511 357.478 327.05C350.771 328.589 343.95 330.337 337.037 331.657C323.359 334.672 309.386 336.933 296.531 339.177C283.677 341.421 271.431 342.992 261.003 344.304C240.097 346.871 226.162 347.962 226.162 347.962L227.12 354.49Z" fill="#386845"/>
<path d="M183.073 395.445C183.073 395.445 202.135 395.533 230.516 394.008C244.757 393.354 261.358 392.137 278.928 390.633C287.749 389.589 296.986 388.877 306.188 387.58C315.39 386.282 324.739 385.362 334.223 383.594L348.302 381.336L362.183 378.647C371.125 377.18 380.258 374.709 388.901 372.594C397.545 370.479 405.724 367.87 413.461 365.779L419.218 363.996L424.717 361.938C428.328 360.618 431.782 359.239 435.07 358.015C441.128 355.712 447.047 353.06 452.797 350.072C455.396 348.772 457.83 347.627 459.938 346.683L465.702 343.037C472.719 338.526 476.688 336.046 476.688 336.046L465.551 342.766C463.81 343.881 461.802 345.04 459.735 346.358C457.668 347.675 455.032 348.494 452.44 349.581C446.68 352.469 440.746 354.997 434.672 357.15C431.332 358.32 427.883 359.592 424.22 360.857L418.779 362.757L412.975 364.378C404.857 366.723 396.842 369.178 388.157 370.919C379.473 372.66 370.611 374.98 361.405 376.384L347.689 378.92L333.671 380.913C324.473 382.105 315.068 383.076 305.767 384.158C296.465 385.239 287.394 385.796 278.528 386.572C260.911 387.916 244.323 388.706 230.196 389.151C201.836 390.038 183 389.531 183 389.531L183.073 395.445Z" fill="#386845"/>
<path d="M220.347 393.837C247.301 409.178 275.232 422.737 303.96 434.424C309.372 436.677 314.845 438.666 320.106 440.648C325.366 442.63 330.85 444.3 336.22 446.179C341.591 448.058 346.564 449.072 351.365 450.453C356.166 451.834 360.829 452.519 365.057 453.508C369.285 454.498 373.328 454.63 376.932 455.174C379.959 455.606 383.011 455.847 386.068 455.897L393.996 456.102L386.078 455.578C383.033 455.479 380 455.148 377.004 454.59C373.566 453.892 369.581 453.603 365.36 452.4C361.139 451.197 356.479 450.407 351.787 448.922C347.096 447.438 342.028 446.102 336.98 444.127C331.932 442.151 326.606 440.54 321.195 438.287C315.783 436.034 310.578 434 305.331 431.593C294.721 427.093 284.344 421.963 274.65 417.12C264.957 412.278 256.118 407.357 248.535 403.115C233.42 394.688 223.717 388.514 223.717 388.514L220.347 393.837Z" fill="#386845"/>
<path d="M171.18 404.11C171.18 404.11 180.323 411.118 194.61 420.424C201.809 425.025 210.209 430.358 219.349 435.821C228.49 441.285 238.651 446.515 248.763 451.584C253.958 453.936 259.095 456.447 264.187 458.69C269.279 460.933 274.426 463.124 279.478 464.993C284.529 466.861 289.261 468.72 293.956 470.098C298.65 471.475 303.022 472.949 307.14 474.042L318.448 476.753C321.777 477.554 324.855 477.867 327.237 478.317L334.973 479.528L327.299 478.053C324.921 477.497 321.897 477.132 318.472 476.008L307.23 472.926C303.222 471.731 299.063 470.264 294.272 468.563C289.482 466.863 285.021 464.854 280.076 462.988C275.131 461.123 270.211 458.513 265.225 456.274C260.239 454.035 255.215 451.315 250.133 448.753C240.244 443.372 230.417 437.726 221.496 432.057C212.575 426.388 204.34 420.901 197.362 416.093C183.514 406.376 174.854 399.224 174.854 399.224L171.18 404.11Z" fill="#386845"/>
<path d="M306.209 386.941C324.182 395.983 342.942 403.367 362.256 409.004C365.842 410.079 369.596 410.893 373.189 411.756C376.782 412.619 380.386 413.162 383.825 413.86C387.263 414.558 390.771 414.778 393.695 414.927C396.619 415.075 399.969 415.238 402.786 415.383C405.604 415.528 408.227 415.134 410.464 415.101C412.441 414.98 414.406 414.723 416.347 414.334L421.438 413.381L416.299 414.172C414.38 414.554 412.431 414.758 410.475 414.781C408.185 414.76 405.567 415.048 402.804 414.851C400.041 414.655 396.956 414.554 393.719 414.182C390.483 413.811 387.199 413.277 383.76 412.58C380.321 411.882 376.773 411.287 373.187 410.212C369.601 409.136 366.004 408.38 362.421 407.198C349.366 403.062 336.596 398.074 324.194 392.267C313.965 387.514 307.48 383.894 307.48 383.894L306.209 386.941Z" fill="#386845"/>
<path d="M232.049 441.56C232.265 442.893 232.596 444.205 233.039 445.48C233.372 446.716 234.02 448.068 234.606 449.685C235.299 451.486 236.114 453.239 237.044 454.93L240.147 460.996L244.304 467.415C245.696 469.719 247.224 471.939 248.88 474.061L253.936 480.669C257.304 485.146 261.277 489.056 264.718 492.95C266.519 494.872 268.268 496.74 269.864 498.443L274.495 503.386L284.458 513.03L274.938 502.868L270.358 497.979C268.536 496.251 266.818 494.417 265.212 492.486C261.662 488.696 257.854 484.631 254.921 479.85L250.188 473.145C248.698 471.068 247.328 468.908 246.086 466.674L242.094 460.101L239.255 454.097C238.442 452.433 237.733 450.72 237.132 448.969C236.607 447.654 236.171 446.305 235.827 444.932C235.206 442.728 234.984 441.39 234.984 441.39L232.049 441.56Z" fill="#386845"/>
<path d="M178.586 405.523C178.465 405.614 178.355 405.718 178.256 405.832C177.958 406.247 177.727 406.707 177.573 407.194C177.031 408.631 176.817 410.171 176.946 411.701C177.018 413.924 177.412 416.126 178.117 418.236C178.882 420.851 179.83 423.409 180.955 425.89C182.347 428.823 183.889 431.681 185.575 434.455C187.341 437.441 189.265 440.486 191.402 443.538C195.85 449.969 200.624 456.168 205.706 462.11C210.615 468.341 216.124 474.112 220.999 479.756L234.892 494.587L248.92 508.571L235.387 494.124C231.321 489.785 226.536 484.676 221.768 479.036C216.999 473.395 211.916 467.638 206.856 461.136C201.797 454.634 197.255 448.575 193.252 442.32C191.236 439.416 189.379 436.405 187.69 433.299C185.868 430.364 184.685 427.45 183.386 424.851C182.288 422.358 181.34 419.802 180.547 417.197C179.966 415.305 179.653 413.341 179.62 411.362C179.573 410.207 179.755 409.054 180.157 407.971C180.328 407.752 180.532 407.561 180.761 407.405L178.586 405.523Z" fill="#386845"/>
</svg>
